<?xml version="1.0" encoding="utf-8"?>
<!-- Generator: Adobe Illustrator 19.0.0, SVG Export Plug-In . SVG Version: 6.00 Build 0)  -->
<svg version="1.1" id="Layer_1" xmlns="http://www.w3.org/2000/svg" xmlns:xlink="http://www.w3.org/1999/xlink" x="0px" y="0px"
	 width="1400px" height="980px" viewBox="0 0 1400 980" enable-background="new 0 0 1400 980" xml:space="preserve">
<g id="XMLID_14_">
	<g id="XMLID_514_">
		<defs>
			<rect id="XMLID_435_" width="1400" height="980"/>
		</defs>
		<clipPath id="XMLID_37_">
			<use xlink:href="#XMLID_435_"  overflow="visible"/>
		</clipPath>
		<g id="XMLID_434_" clip-path="url(#XMLID_37_)">
			<linearGradient id="XMLID_38_" gradientUnits="userSpaceOnUse" x1="700" y1="868.5819" x2="700" y2="-3.142668e-008">
				<stop  offset="0" style="stop-color:#FFFFFF"/>
				<stop  offset="0.1751" style="stop-color:#F8FCFF"/>
				<stop  offset="0.372" style="stop-color:#E9F7FE"/>
				<stop  offset="0.5796" style="stop-color:#D1EEFC"/>
				<stop  offset="0.793" style="stop-color:#B0E2FA"/>
				<stop  offset="1" style="stop-color:#84D5F7"/>
			</linearGradient>
			<rect id="XMLID_625_" fill="url(#XMLID_38_)" width="1400" height="868.6"/>
			<g id="XMLID_433_">
				<path id="XMLID_1013_" fill="#FFFFFF" d="M698.4,136.6c-58.5-14-117.8,31.1-177.2,22c-15.2-2.3-30.3-8.2-45.4-5.6
					c-20.3,3.6-36.4,21.9-57.1,22.8c-17.1,0.7-32.1-10.8-48.4-16.3c-17.5-5.9-36.5-4.7-54.7-8.1c-13.6-2.5-38.5,1.7-51.7-2.6
					c-45.8-14.9-96.5-13-144.2-19c65.8-10.7,95-23.2,161.7-25.4c4.1-0.1,60.3,18.3,63.9,16.3c5.1-2.9,7.7-8.6,10.9-13.6
					c12.4-19.2,38.4-28.2,60-20.9c28.2,9.6,35.6,30.2,65.4,30.1c22.3-0.1,51.8-7.1,74-9.5c9.1-1,31,17.3,39.9,19.3
					c39.9,8.6,67,0.7,107,9.3"/>
				<path id="XMLID_1027_" fill="#FFFFFF" d="M899.1,188.7c29.2,3.4,59.4-1,86.4-12.7c15.7-6.8,31.5-16.1,48.4-14.5
					c12.1,1.2,23.1,7.9,35.2,9.2c33.3,3.6,60.9-33.8,94-29.6c25.7,3.3,42.3,30.2,67.1,37.6c10.1,3,20.9,2.6,31.4,2
					c44.1-2.5,93.4-5.9,127.2,22.6c-46.3-14.9-97.2-15.2-143.7-0.7c-15,4.7-29.9,10.9-45.7,11.3c-28.3,0.6-54.4-17.8-82.7-17.2
					c-14.4,0.3-28.3,5.6-42.7,6.9c-18.8,1.7-37.5-3.7-56.4-4.3c-21.1-0.7-42,4.5-63,5.9c-21.1,1.4-44-1.8-59.4-16.3"/>
				<path id="XMLID_432_" fill="#FFFFFF" d="M425.3,323.8c47.1,10.9,92.7-27.3,141.1-25.8c11.5,0.4,23.5,2.9,34.2-1.3
					c6.4-2.5,11.7-7.2,17.1-11.5c16.5-13.1,38.2-23.3,58.3-16.9c14.8,4.7,25.4,17.3,38.5,25.6c42.4,26.6,102.9,3.7,145.2,30.5
					c-30.6,1-61.2,2.1-91.9,3.1c-21.1,0.7-42.4,1.4-63.2-2.1c-19-3.2-37.6-10-56.9-10.2c-17.9-0.2-35.2,5.1-52.6,9.2
					c-56.2,13.2-115.4,13.1-171.5-0.1"/>
			</g>
			<g id="XMLID_482_">
				<path id="XMLID_327_" fill="#87BC40" d="M645.8,796.2c0,0,108-9.2,273-85.9c165-76.7,225-74.1,312-55.7s234,47.2,264,44.6
					c30-2.6,31.7,228.7,30.8,224.5c-1-4.2-850,20.7-850,20.7L645.8,796.2z"/>
				<path id="XMLID_328_" fill="#8DC63F" d="M499.8,747c-42,10-51,23.1-180-24.1s-123-91.8-225-97c-102-5.2-162.3,17-178.7,37.3
					c-16.3,20.3-67.3,150.9-67.3,150.9l564.1,25.8L499.8,747z"/>
				<path id="XMLID_312_" fill="#70AA43" d="M1158.2,851.3c-92.4-16.1-164.3-57.7-290.3-128.5s-219-65.6-279-49.8
					c-60,15.7-6,5.2-117,47.2c-111,42-213,78.7-270,73.4c-57-5.2-249-65.5-273-55c-24,10.5,0,278,0,278h1173.1L1158.2,851.3z"/>
				<path id="XMLID_326_" fill="#619C42" d="M402.8,964.1c0,0-21.8,15.5,128.2-23.9s156.9-70.4,328-120.3
					c171-49.8,206.9,34.3,311.9-5.1c105-39.3,216-113,282-86.8s102,335.7,102,335.7l-1179.1-13.1L402.8,964.1z"/>
				<path id="XMLID_325_" fill="#59883D" d="M0,814.6c165.8-7.9,393.8,65.6,573.8,144.2s345,76.1,345,76.1H0V814.6z"/>
			</g>
			<g id="XMLID_206_">
				<g id="XMLID_431_">
					<rect id="XMLID_36_" x="131.7" y="259.1" fill="#642D10" width="1" height="13.2"/>
				</g>
				<g id="XMLID_428_">
					<g id="XMLID_430_">
						
							<rect id="XMLID_35_" x="124.1" y="259.4" transform="matrix(0.9968 8.005565e-002 -8.005565e-002 0.9968 21.742 -9.1217)" fill="#642D10" width="1" height="14.5"/>
					</g>
					<g id="XMLID_429_">
						
							<rect id="XMLID_34_" x="132.6" y="266.1" transform="matrix(8.051299e-002 0.9968 -0.9968 8.051299e-002 394.2509 105.798)" fill="#642D10" width="14.5" height="1"/>
					</g>
				</g>
				<path id="XMLID_427_" fill="#642D10" d="M140.1,259.6c0,0.3-3.6,1.3-7.9,1.3c-4.4,0-7.9-1-7.9-1.3c0-0.3,3.6-2.3,7.9-2.3
					C136.6,257.3,140.1,259.2,140.1,259.6z"/>
				<g id="XMLID_420_">
					<path id="XMLID_426_" fill="#FFFFFF" d="M181.7,158.1c-13.4-20.5-49.5-20.5-49.5-20.5s-36.1,0-49.5,20.5
						c-10.9,16.7-8.5,34.8,4.9,53.9s37,41.4,37,41.4h7.6h7.6c0,0,23.6-22.3,37-41.4C190.1,192.9,192.6,174.8,181.7,158.1z"/>
					<path id="XMLID_425_" fill="#F7941E" d="M176.5,156.5c-11-18.9-44.3-18.9-44.3-18.9s-32.3,0-44,18.3
						c-10.4,16.2-6.8,37,4.9,56.2c11.7,19.2,32.4,41.4,32.4,41.4h6.6h6.6c0,0,20.7-22.3,32.4-41.4
						C183,192.9,186.2,173.2,176.5,156.5z"/>
					<path id="XMLID_424_" fill="#FFFFFF" d="M169.6,153c-8.1-14.4-37.4-15.4-37.4-15.4s-29,0.3-37,14.7
						c-8.1,14.4-7.6,38.7,8.8,65.1c16.4,26.4,23.1,36.1,23.1,36.1h5.2h5.2c0,0,6.7-9.7,23.1-36.1C176.9,191,177.7,167.3,169.6,153z"
						/>
					<path id="XMLID_423_" fill="#F7941E" d="M128.6,253.5c0,0-12.5-25-23.6-55.9s-5.3-47,3.3-53.5c8.4-6.2,22.9-6.5,23.8-6.5v0
						c0,0,0,0,0,0s0,0,0,0v0c1,0,15.4,0.2,23.8,6.5c8.7,6.5,14.5,22.5,3.3,53.5s-23.6,55.9-23.6,55.9H128.6z"/>
					<path id="XMLID_422_" fill="#FFFFFF" d="M130.9,253.5c0,0-6.8-23.6-13.3-44.6c-6.5-20.9-9.1-45.7-5.1-58.6
						c3.5-11.3,16.9-12.6,20.1-12.7l0,0c0,0,0.1,0,0.4,0c0.2,0,0.4,0,0.4,0l0,0c3.2,0.1,16.6,1.3,20.1,12.7
						c4,12.9,1.4,37.7-5.1,58.6c-6.5,20.9-13.3,44.6-13.3,44.6H130.9z"/>
					<path id="XMLID_421_" fill="#F7941E" d="M140.9,147.6c-0.9-8.7-7.7-10-7.7-10s-6.8,1.3-7.7,10c-3.1,28.7,6.7,105.9,6.7,105.9h1
						h1C134.2,253.5,144,176.4,140.9,147.6z"/>
				</g>
				<path id="XMLID_419_" fill="#F7941E" d="M124.3,259.6c1.7-0.5,4.4-1.1,8.1-1.1c3.6,0,6.1,0.6,7.8,1.1v-2.7
					c0-2.2,0.8-4.3,2.2-5.9c0,0-3.2-2.1-10-2.1c-6.9,0-10.3,2.1-10.3,2.1c1.4,1.6,2.2,3.7,2.2,5.9V259.6z"/>
				<g id="XMLID_207_">
					<path id="XMLID_416_" fill="#642D10" d="M140.6,271.6c0-0.4-3.8-0.7-8.4-0.7c-4.7,0-8.4,0.3-8.4,0.7c0,0,0,0,0,0.1h0v14.6
						c0,0.4,3.8,0.7,8.4,0.7c4.7,0,8.4-0.3,8.4-0.7V271.6L140.6,271.6C140.6,271.6,140.6,271.6,140.6,271.6z"/>
					<g id="XMLID_210_">
						<path id="XMLID_211_" fill="#F7941E" d="M123.8,286.2v0.1c0,0.4,3.8,0.7,8.4,0.7c4.7,0,8.4-0.3,8.4-0.7v-0.2
							c-1.7-0.6-4.5-1.3-8.3-1.3C128.5,284.8,125.6,285.5,123.8,286.2z"/>
					</g>
					<g id="XMLID_208_">
						<path id="XMLID_209_" fill="#F7941E" d="M141,271.6c0-0.4-4-0.7-8.8-0.7c-4.9,0-8.8,0.3-8.8,0.7c0,0,0,0,0,0.1h0v1.9
							c0,0.2,0.2,0.4,0.4,0.3c1.1-0.3,4.5-0.5,8.5-0.5c4,0,7.4,0.2,8.5,0.5c0.2,0.1,0.4-0.1,0.4-0.3V271.6L141,271.6
							C141,271.6,141,271.6,141,271.6z"/>
					</g>
				</g>
			</g>
			<g id="XMLID_193_">
				<g id="XMLID_574_">
					<rect id="XMLID_33_" x="1083.8" y="199.5" fill="#642D10" width="1" height="7.8"/>
				</g>
				<g id="XMLID_531_">
					<g id="XMLID_573_">
						
							<rect id="XMLID_32_" x="1079.3" y="199.6" transform="matrix(0.9968 8.013362e-002 -8.013362e-002 0.9968 19.8134 -85.8761)" fill="#642D10" width="1" height="8.6"/>
					</g>
					<g id="XMLID_572_">
						
							<rect id="XMLID_31_" x="1084.5" y="203.4" transform="matrix(8.051010e-002 0.9968 -0.9968 8.051010e-002 1204.4261 -897.796)" fill="#642D10" width="8.6" height="1"/>
					</g>
				</g>
				<path id="XMLID_512_" fill="#642D10" d="M1089,199.8c0,0.2-2.1,0.8-4.7,0.8c-2.6,0-4.7-0.6-4.7-0.8s2.1-1.3,4.7-1.3
					C1086.9,198.4,1089,199.6,1089,199.8z"/>
				<g id="XMLID_201_">
					<path id="XMLID_511_" fill="#FFFFFF" d="M1113.7,139.6c-7.9-12.2-29.3-12.2-29.3-12.2s-21.4,0-29.3,12.2
						c-6.5,9.9-5,20.6,2.9,32s21.9,24.6,21.9,24.6h4.5h4.5c0,0,14-13.2,21.9-24.6C1118.7,160.2,1120.1,149.5,1113.7,139.6z"/>
					<path id="XMLID_510_" fill="#F7941E" d="M1110.6,138.6c-6.5-11.2-26.3-11.2-26.3-11.2s-19.1,0-26.1,10.8
						c-6.1,9.6-4,21.9,2.9,33.3c6.9,11.4,19.2,24.6,19.2,24.6h3.9h3.9c0,0,12.3-13.2,19.2-24.6S1116.4,148.5,1110.6,138.6z"/>
					<path id="XMLID_466_" fill="#FFFFFF" d="M1106.5,136.5c-4.8-8.5-22.2-9.1-22.2-9.1s-17.2,0.2-22,8.7
						c-4.8,8.5-4.5,22.9,5.2,38.6c9.7,15.7,13.7,21.4,13.7,21.4h3.1h3.1c0,0,4-5.8,13.7-21.4
						C1110.8,159.1,1111.3,145.1,1106.5,136.5z"/>
					<path id="XMLID_204_" fill="#F7941E" d="M1082.2,196.1c0,0-7.4-14.8-14-33.2c-6.6-18.4-3.2-27.9,2-31.7
						c5-3.7,13.6-3.8,14.1-3.8v0c0,0,0,0,0,0s0,0,0,0v0c0.6,0,9.2,0.1,14.1,3.8c5.2,3.8,8.6,13.4,2,31.7c-6.6,18.4-14,33.2-14,33.2
						H1082.2z"/>
					<path id="XMLID_203_" fill="#FFFFFF" d="M1083.6,196.1c0,0-4-14-7.9-26.4c-3.9-12.4-5.4-27.1-3-34.8c2.1-6.7,10-7.5,11.9-7.5v0
						c0,0,0.1,0,0.2,0c0.1,0,0.2,0,0.2,0v0c1.9,0.1,9.8,0.8,11.9,7.5c2.4,7.7,0.8,22.3-3,34.8c-3.9,12.4-7.9,26.4-7.9,26.4H1083.6z"
						/>
					<path id="XMLID_202_" fill="#F7941E" d="M1089.5,133.4c-0.6-5.2-4.6-5.9-4.6-5.9s-4,0.8-4.6,5.9c-1.9,17.1,4,62.8,4,62.8h0.6
						h0.6C1085.5,196.1,1091.4,150.4,1089.5,133.4z"/>
				</g>
				<path id="XMLID_200_" fill="#F7941E" d="M1079.6,199.8c1-0.3,2.6-0.7,4.8-0.7c2.1,0,3.6,0.3,4.6,0.6v-1.6c0-1.3,0.5-2.5,1.3-3.5
					c0,0-1.9-1.2-5.9-1.2c-4.1,0-6.1,1.2-6.1,1.2c0.9,1,1.3,2.2,1.3,3.5V199.8z"/>
				<g id="XMLID_194_">
					<path id="XMLID_199_" fill="#642D10" d="M1089.3,206.9c0-0.2-2.2-0.4-5-0.4c-2.8,0-5,0.2-5,0.4c0,0,0,0,0,0h0v8.7
						c0,0.2,2.2,0.4,5,0.4c2.8,0,5-0.2,5-0.4V206.9L1089.3,206.9C1089.3,206.9,1089.3,206.9,1089.3,206.9z"/>
					<g id="XMLID_197_">
						<path id="XMLID_198_" fill="#F7941E" d="M1079.3,215.5L1079.3,215.5c0,0.3,2.2,0.5,5,0.5c2.8,0,5-0.2,5-0.4v-0.1
							c-1-0.4-2.6-0.8-4.9-0.8C1082.1,214.7,1080.4,215.1,1079.3,215.5z"/>
					</g>
					<g id="XMLID_195_">
						<path id="XMLID_196_" fill="#F7941E" d="M1089.6,206.9c0-0.2-2.3-0.4-5.2-0.4s-5.2,0.2-5.2,0.4c0,0,0,0,0,0h0v1.1
							c0,0.1,0.1,0.2,0.2,0.2c0.6-0.2,2.6-0.3,5-0.3s4.4,0.1,5,0.3c0.1,0,0.2-0.1,0.2-0.2V206.9L1089.6,206.9
							C1089.6,206.9,1089.6,206.9,1089.6,206.9z"/>
					</g>
				</g>
			</g>
			<g id="XMLID_589_">
				<g id="XMLID_931_">
					<rect id="XMLID_30_" x="470.4" y="195.6" fill="#642D10" width="1" height="9.9"/>
				</g>
				<g id="XMLID_624_">
					<g id="XMLID_930_">
						
							<rect id="XMLID_29_" x="464.8" y="195.8" transform="matrix(0.9968 8.005565e-002 -8.005565e-002 0.9968 17.6015 -36.6015)" fill="#642D10" width="1" height="10.8"/>
					</g>
					<g id="XMLID_911_">
						
							<rect id="XMLID_28_" x="471.2" y="200.7" transform="matrix(8.049343e-002 0.9968 -0.9968 8.049343e-002 638.7968 -290.0394)" fill="#642D10" width="10.8" height="1"/>
					</g>
				</g>
				<path id="XMLID_623_" fill="#642D10" d="M476.9,196c0,0.2-2.7,1-5.9,1c-3.3,0-5.9-0.7-5.9-1c0-0.2,2.7-1.7,5.9-1.7
					C474.2,194.3,476.9,195.7,476.9,196z"/>
				<g id="XMLID_597_">
					<path id="XMLID_622_" fill="#FFFFFF" d="M507.9,120.1c-10-15.3-37-15.3-37-15.3s-27,0-37,15.3c-8.1,12.5-6.3,26,3.7,40.3
						c10,14.3,27.7,31,27.7,31h5.7h5.7c0,0,17.7-16.7,27.7-31C514.3,146.1,516.1,132.5,507.9,120.1z"/>
					<path id="XMLID_621_" fill="#92278F" d="M504.1,118.9c-8.3-14.2-33.1-14.2-33.1-14.2s-24.1,0-32.9,13.7
						c-7.8,12.1-5.1,27.7,3.7,42c8.8,14.3,24.2,31,24.2,31h5h5c0,0,15.5-16.7,24.2-31C508.9,146.1,511.3,131.3,504.1,118.9z"/>
					<path id="XMLID_620_" fill="#FFFFFF" d="M498.9,116.2c-6.1-10.8-28-11.5-28-11.5s-21.7,0.3-27.7,11
						c-6.1,10.8-5.7,28.9,6.6,48.7s17.3,27,17.3,27h3.9h3.9c0,0,5-7.3,17.3-27C504.3,144.6,505,127,498.9,116.2z"/>
					<path id="XMLID_600_" fill="#92278F" d="M468.3,191.4c0,0-9.3-18.7-17.7-41.8c-8.3-23.2-4-35.2,2.5-40
						c6.3-4.7,17.1-4.8,17.8-4.8v0c0,0,0,0,0,0c0,0,0,0,0,0v0c0.7,0,11.6,0.2,17.8,4.8c6.5,4.8,10.8,16.8,2.5,40
						c-8.3,23.2-17.7,41.8-17.7,41.8H468.3z"/>
					<path id="XMLID_599_" fill="#FFFFFF" d="M469.9,191.4c0,0-5.1-17.7-9.9-33.3c-4.9-15.7-6.8-34.2-3.8-43.8
						c2.6-8.5,12.6-9.4,15-9.5l0,0c0,0,0.1,0,0.3,0c0.2,0,0.3,0,0.3,0v0c2.4,0.1,12.4,1,15,9.5c3,9.7,1,28.2-3.8,43.8
						c-4.9,15.7-9.9,33.3-9.9,33.3H469.9z"/>
					<path id="XMLID_598_" fill="#92278F" d="M477.4,112.2c-0.7-6.5-5.8-7.5-5.8-7.5s-5.1,1-5.8,7.5c-2.3,21.5,5,79.2,5,79.2h0.8
						h0.8C472.4,191.4,479.8,133.7,477.4,112.2z"/>
				</g>
				<path id="XMLID_596_" fill="#92278F" d="M465,196c1.3-0.4,3.3-0.9,6.1-0.9c2.7,0,4.6,0.4,5.8,0.8v-2c0-1.6,0.6-3.2,1.7-4.4
					c0,0-2.4-1.5-7.5-1.5c-5.1,0-7.7,1.5-7.7,1.5c1.1,1.2,1.7,2.8,1.7,4.4V196z"/>
				<g id="XMLID_590_">
					<path id="XMLID_595_" fill="#642D10" d="M477.2,205c0-0.3-2.8-0.5-6.3-0.5c-3.5,0-6.3,0.2-6.3,0.5c0,0,0,0,0,0h0v11
						c0,0.3,2.8,0.5,6.3,0.5c3.5,0,6.3-0.2,6.3-0.5V205L477.2,205C477.2,205,477.2,205,477.2,205z"/>
					<g id="XMLID_593_">
						<path id="XMLID_594_" fill="#92278F" d="M464.6,215.8v0.1c0,0.3,2.8,0.5,6.3,0.5c3.5,0,6.3-0.2,6.3-0.5v-0.2
							c-1.3-0.5-3.3-1-6.2-1C468.1,214.8,466,215.4,464.6,215.8z"/>
					</g>
					<g id="XMLID_591_">
						<path id="XMLID_592_" fill="#92278F" d="M477.5,204.9c0-0.3-3-0.6-6.6-0.6c-3.6,0-6.6,0.3-6.6,0.6c0,0,0,0,0,0h0v1.4
							c0,0.2,0.1,0.3,0.3,0.2c0.8-0.2,3.3-0.4,6.3-0.4c3,0,5.5,0.2,6.3,0.4c0.1,0,0.3-0.1,0.3-0.2V204.9L477.5,204.9
							C477.5,205,477.5,204.9,477.5,204.9z"/>
					</g>
				</g>
			</g>
			<g id="XMLID_467_">
				<g id="XMLID_489_">
					<rect id="XMLID_27_" x="1245.1" y="411.2" fill="#642D10" width="1" height="19.8"/>
				</g>
				<g id="XMLID_486_">
					<g id="XMLID_488_">
						
							<rect id="XMLID_26_" x="1233.8" y="411.6" transform="matrix(0.9968 8.013362e-002 -8.013362e-002 0.9968 37.8228 -97.5486)" fill="#642D10" width="1" height="21.6"/>
					</g>
					<g id="XMLID_487_">
						
							<rect id="XMLID_25_" x="1246.1" y="422" transform="matrix(8.051336e-002 0.9968 -0.9968 8.051336e-002 1576.8311 -864.4101)" fill="#642D10" width="21.6" height="1"/>
					</g>
				</g>
				<path id="XMLID_485_" fill="#642D10" d="M1257.5,412c0,0.5-5.3,1.9-11.9,1.9c-6.6,0-11.9-1.4-11.9-1.9c0-0.5,5.3-3.4,11.9-3.4
					C1252.1,408.6,1257.5,411.5,1257.5,412z"/>
				<g id="XMLID_476_">
					<path id="XMLID_484_" fill="#FFFFFF" d="M1319.6,260.2c-20-30.7-74-30.7-74-30.7s-54,0-74,30.7c-16.3,25-12.7,52,7.3,80.7
						c20,28.7,55.3,62,55.3,62h11.3h11.3c0,0,35.3-33.3,55.3-62C1332.3,312.2,1335.9,285.2,1319.6,260.2z"/>
					<path id="XMLID_483_" fill="#00A79D" d="M1311.9,257.8c-16.5-28.3-66.3-28.3-66.3-28.3s-48.3,0-65.8,27.3
						c-15.5,24.2-10.1,55.3,7.4,84c17.5,28.7,48.4,62,48.4,62h9.9h9.9c0,0,30.9-33.3,48.4-62
						C1321.5,312.2,1326.4,282.7,1311.9,257.8z"/>
					<path id="XMLID_481_" fill="#FFFFFF" d="M1301.6,252.5c-12.1-21.5-55.9-23-55.9-23s-43.3,0.5-55.4,22
						c-12.1,21.5-11.3,57.8,13.2,97.3s34.5,54,34.5,54h7.8h7.8c0,0,10-14.5,34.5-54S1313.7,274,1301.6,252.5z"/>
					<path id="XMLID_480_" fill="#00A79D" d="M1240.3,402.8c0,0-18.7-37.3-35.3-83.7s-8-70.3,5-80c12.6-9.3,34.2-9.7,35.7-9.7v0
						c0,0,0,0,0,0c0,0,0,0,0,0v0c1.5,0,23.1,0.3,35.7,9.7c13,9.7,21.7,33.7,5,80c-16.7,46.3-35.3,83.7-35.3,83.7H1240.3z"/>
					<path id="XMLID_479_" fill="#FFFFFF" d="M1243.6,402.8c0,0-10.1-35.3-19.9-66.7c-9.8-31.3-13.6-68.3-7.7-87.7
						c5.2-17,25.2-18.8,30-19v0c0,0,0.2,0,0.5,0c0.3,0,0.5,0,0.5,0v0c4.8,0.2,24.8,2,30,19c5.9,19.3,2.1,56.3-7.7,87.7
						c-9.8,31.3-19.9,66.7-19.9,66.7H1243.6z"/>
					<path id="XMLID_478_" fill="#00A79D" d="M1258.6,244.5c-1.4-13-11.5-15-11.5-15s-10.1,2-11.5,15c-4.7,43,10,158.3,10,158.3h1.5
						h1.5C1248.6,402.8,1263.3,287.5,1258.6,244.5z"/>
				</g>
				<path id="XMLID_474_" fill="#00A79D" d="M1233.7,412c2.6-0.8,6.6-1.7,12.1-1.7c5.3,0,9.2,0.8,11.6,1.6v-4c0-3.2,1.2-6.4,3.4-8.8
					c0,0-4.7-3.1-15-3.1s-15.5,3.1-15.5,3.1c2.2,2.4,3.4,5.5,3.4,8.8V412z"/>
				<g id="XMLID_468_">
					<path id="XMLID_473_" fill="#642D10" d="M1258.2,430c0-0.6-5.6-1.1-12.6-1.1c-7,0-12.6,0.5-12.6,1.1c0,0,0,0.1,0,0.1h0v21.9
						c0,0.6,5.6,1.1,12.6,1.1c7,0,12.6-0.5,12.6-1.1V430L1258.2,430C1258.2,430,1258.2,430,1258.2,430z"/>
					<g id="XMLID_471_">
						<path id="XMLID_472_" fill="#00A79D" d="M1233,451.7v0.2c0,0.6,5.6,1.1,12.6,1.1c7,0,12.6-0.5,12.6-1.1v-0.3
							c-2.6-1-6.7-1.9-12.3-1.9C1240,449.7,1235.7,450.7,1233,451.7z"/>
					</g>
					<g id="XMLID_469_">
						<path id="XMLID_470_" fill="#00A79D" d="M1258.8,429.9c0-0.6-5.9-1.1-13.2-1.1s-13.2,0.5-13.2,1.1c0,0,0,0.1,0,0.1h0v2.8
							c0,0.3,0.3,0.6,0.5,0.5c1.6-0.5,6.7-0.8,12.7-0.8c6,0,11,0.3,12.7,0.8c0.3,0.1,0.5-0.2,0.5-0.5V429.9L1258.8,429.9
							C1258.8,430,1258.8,429.9,1258.8,429.9z"/>
					</g>
				</g>
			</g>
			<g id="XMLID_952_">
				<g id="XMLID_971_">
					<rect id="XMLID_24_" x="620.5" y="380.9" fill="#642D10" width="1" height="11.3"/>
				</g>
				<g id="XMLID_968_">
					<g id="XMLID_970_">
						
							<rect id="XMLID_23_" x="614" y="381.1" transform="matrix(0.9968 8.005565e-002 -8.005565e-002 0.9968 32.9789 -47.955)" fill="#642D10" width="1" height="12.4"/>
					</g>
					<g id="XMLID_969_">
						
							<rect id="XMLID_22_" x="621.3" y="386.8" transform="matrix(8.052574e-002 0.9968 -0.9968 8.052574e-002 963.0453 -269.3645)" fill="#642D10" width="12.4" height="1"/>
					</g>
				</g>
				<path id="XMLID_967_" fill="#642D10" d="M627.8,381.3c0,0.3-3,1.1-6.8,1.1c-3.8,0-6.8-0.8-6.8-1.1s3-1.9,6.8-1.9
					C624.8,379.4,627.8,381,627.8,381.3z"/>
				<g id="XMLID_960_">
					<path id="XMLID_966_" fill="#FFFFFF" d="M663.4,294.4c-11.5-17.6-42.4-17.6-42.4-17.6s-30.9,0-42.4,17.6
						c-9.3,14.3-7.3,29.8,4.2,46.2c11.5,16.4,31.7,35.5,31.7,35.5h6.5h6.5c0,0,20.2-19.1,31.7-35.5
						C670.6,324.2,672.7,308.7,663.4,294.4z"/>
					<path id="XMLID_965_" fill="#00A79D" d="M659,293.1c-9.4-16.2-37.9-16.2-37.9-16.2s-27.6,0-37.6,15.6
						c-8.9,13.9-5.8,31.7,4.2,48.1c10,16.4,27.7,35.5,27.7,35.5h5.7h5.7c0,0,17.7-19.1,27.7-35.5S667.3,307.3,659,293.1z"/>
					<path id="XMLID_964_" fill="#FFFFFF" d="M653.1,290c-6.9-12.3-32-13.2-32-13.2s-24.8,0.3-31.7,12.6
						c-6.9,12.3-6.5,33.1,7.5,55.7c14,22.6,19.8,30.9,19.8,30.9h4.4h4.4c0,0,5.7-8.3,19.8-30.9C659.3,322.5,660,302.3,653.1,290z"/>
					<path id="XMLID_963_" fill="#00A79D" d="M618,376.1c0,0-10.7-21.4-20.2-47.9s-4.6-40.3,2.9-45.8c7.2-5.3,19.6-5.5,20.4-5.5v0
						c0,0,0,0,0,0c0,0,0,0,0,0v0c0.8,0,13.2,0.2,20.4,5.5c7.4,5.5,12.4,19.3,2.9,45.8c-9.5,26.5-20.2,47.9-20.2,47.9H618z"/>
					<path id="XMLID_962_" fill="#FFFFFF" d="M619.9,376.1c0,0-5.8-20.2-11.4-38.2c-5.6-17.9-7.8-39.1-4.4-50.2
						c3-9.7,14.4-10.8,17.2-10.9v0c0,0,0.1,0,0.3,0c0.2,0,0.3,0,0.3,0v0c2.8,0.1,14.2,1.1,17.2,10.9c3.4,11.1,1.2,32.3-4.4,50.2
						c-5.6,17.9-11.4,38.2-11.4,38.2H619.9z"/>
					<path id="XMLID_961_" fill="#00A79D" d="M628.5,285.4c-0.8-7.4-6.6-8.6-6.6-8.6s-5.8,1.1-6.6,8.6c-2.7,24.6,5.7,90.7,5.7,90.7
						h0.9h0.9C622.8,376.1,631.2,310,628.5,285.4z"/>
				</g>
				<path id="XMLID_959_" fill="#00A79D" d="M614.2,381.3c1.5-0.5,3.8-1,6.9-1c3.1,0,5.3,0.5,6.7,0.9V379c0-1.9,0.7-3.6,1.9-5
					c0,0-2.7-1.8-8.6-1.8c-5.9,0-8.9,1.8-8.9,1.8c1.2,1.4,1.9,3.2,1.9,5V381.3z"/>
				<g id="XMLID_953_">
					<path id="XMLID_958_" fill="#642D10" d="M628.2,391.6c0-0.3-3.2-0.6-7.2-0.6c-4,0-7.2,0.3-7.2,0.6c0,0,0,0,0,0h0v12.5
						c0,0.3,3.2,0.6,7.2,0.6c4,0,7.2-0.3,7.2-0.6V391.6L628.2,391.6C628.2,391.6,628.2,391.6,628.2,391.6z"/>
					<g id="XMLID_956_">
						<path id="XMLID_957_" fill="#00A79D" d="M613.8,404.1v0.1c0,0.3,3.2,0.6,7.2,0.6c4,0,7.2-0.3,7.2-0.6V404
							c-1.5-0.5-3.8-1.1-7.1-1.1C617.8,402.9,615.4,403.5,613.8,404.1z"/>
					</g>
					<g id="XMLID_954_">
						<path id="XMLID_955_" fill="#00A79D" d="M628.6,391.6c0-0.4-3.4-0.6-7.6-0.6c-4.2,0-7.6,0.3-7.6,0.6c0,0,0,0,0,0.1h0v1.6
							c0,0.2,0.2,0.3,0.3,0.3c0.9-0.3,3.8-0.5,7.2-0.5c3.4,0,6.3,0.2,7.2,0.5c0.2,0,0.3-0.1,0.3-0.3V391.6L628.6,391.6
							C628.6,391.6,628.6,391.6,628.6,391.6z"/>
					</g>
				</g>
			</g>
			<g id="XMLID_972_">
				<g id="XMLID_992_">
					<rect id="XMLID_21_" x="839.3" y="311.5" fill="#642D10" width="1" height="19.8"/>
				</g>
				<g id="XMLID_989_">
					<g id="XMLID_991_">
						
							<rect id="XMLID_20_" x="828" y="312" transform="matrix(0.9968 8.013362e-002 -8.013362e-002 0.9968 28.5293 -65.3525)" fill="#642D10" width="1" height="21.6"/>
					</g>
					<g id="XMLID_990_">
						
							<rect id="XMLID_19_" x="840.3" y="322.3" transform="matrix(8.051517e-002 0.9968 -0.9968 8.051517e-002 1104.3534 -551.6115)" fill="#642D10" width="21.6" height="1"/>
					</g>
				</g>
				<path id="XMLID_988_" fill="#642D10" d="M851.7,312.3c0,0.5-5.3,1.9-11.9,1.9s-11.9-1.4-11.9-1.9c0-0.5,5.3-3.4,11.9-3.4
					S851.7,311.8,851.7,312.3z"/>
				<g id="XMLID_981_">
					<path id="XMLID_987_" fill="#FFFFFF" d="M913.8,160.5c-20-30.7-74-30.7-74-30.7s-54,0-74,30.7c-16.3,25-12.7,52,7.3,80.7
						c20,28.7,55.3,62,55.3,62h11.3h11.3c0,0,35.3-33.3,55.3-62C926.5,212.5,930.1,185.5,913.8,160.5z"/>
					<path id="XMLID_986_" fill="#F16672" d="M906.1,158.2c-16.5-28.3-66.3-28.3-66.3-28.3s-48.3,0-65.8,27.3
						c-15.5,24.2-10.1,55.3,7.4,84c17.5,28.7,48.4,62,48.4,62h9.9h9.9c0,0,30.9-33.3,48.4-62C915.8,212.5,920.6,183,906.1,158.2z"/>
					<path id="XMLID_985_" fill="#FFFFFF" d="M895.8,152.8c-12.1-21.5-55.9-23-55.9-23s-43.3,0.5-55.4,22s-11.3,57.8,13.2,97.3
						s34.5,54,34.5,54h7.8h7.8c0,0,10-14.5,34.5-54S907.9,174.3,895.8,152.8z"/>
					<path id="XMLID_984_" fill="#F16672" d="M834.5,303.2c0,0-18.7-37.3-35.3-83.7c-16.7-46.3-8-70.3,5-80
						c12.6-9.3,34.2-9.7,35.7-9.7v0c0,0,0,0,0,0c0,0,0,0,0,0v0c1.5,0,23.1,0.3,35.7,9.7c13,9.7,21.7,33.7,5,80
						c-16.7,46.3-35.3,83.7-35.3,83.7H834.5z"/>
					<path id="XMLID_983_" fill="#FFFFFF" d="M837.8,303.2c0,0-10.1-35.3-19.9-66.7c-9.8-31.3-13.6-68.3-7.7-87.7
						c5.2-17,25.2-18.8,30-19l0,0c0,0,0.2,0,0.5,0c0.3,0,0.5,0,0.5,0v0c4.8,0.2,24.8,2,30,19c5.9,19.3,2.1,56.3-7.7,87.7
						c-9.8,31.3-19.9,66.7-19.9,66.7H837.8z"/>
					<path id="XMLID_982_" fill="#F16672" d="M852.9,144.8c-1.4-13-11.5-15-11.5-15s-10.1,2-11.5,15c-4.7,43,10,158.3,10,158.3h1.5
						h1.5C842.9,303.2,857.5,187.8,852.9,144.8z"/>
				</g>
				<path id="XMLID_980_" fill="#F16672" d="M827.9,312.3c2.6-0.8,6.6-1.7,12.1-1.7c5.3,0,9.2,0.8,11.6,1.6v-4
					c0-3.2,1.2-6.4,3.4-8.8c0,0-4.7-3.1-15-3.1c-10.3,0-15.5,3.1-15.5,3.1c2.2,2.4,3.4,5.5,3.4,8.8V312.3z"/>
				<g id="XMLID_973_">
					<path id="XMLID_979_" fill="#642D10" d="M852.4,330.3c0-0.6-5.6-1.1-12.6-1.1s-12.6,0.5-12.6,1.1c0,0,0,0.1,0,0.1h0v21.9
						c0,0.6,5.6,1.1,12.6,1.1s12.6-0.5,12.6-1.1V330.3L852.4,330.3C852.4,330.3,852.4,330.3,852.4,330.3z"/>
					<g id="XMLID_976_">
						<path id="XMLID_978_" fill="#F16672" d="M827.2,352v0.2c0,0.6,5.6,1.1,12.6,1.1s12.6-0.5,12.6-1.1v-0.3
							c-2.6-1-6.7-1.9-12.3-1.9C834.2,350,829.9,351.1,827.2,352z"/>
					</g>
					<g id="XMLID_974_">
						<path id="XMLID_975_" fill="#F16672" d="M853,330.2c0-0.6-5.9-1.1-13.2-1.1c-7.3,0-13.2,0.5-13.2,1.1c0,0,0,0.1,0,0.1h0v2.8
							c0,0.3,0.3,0.6,0.5,0.5c1.6-0.5,6.7-0.8,12.7-0.8c6,0,11,0.3,12.7,0.8c0.3,0.1,0.5-0.2,0.5-0.5V330.2L853,330.2
							C853,330.3,853,330.2,853,330.2z"/>
					</g>
				</g>
			</g>
			<g id="XMLID_490_">
				<g id="XMLID_509_">
					<rect id="XMLID_18_" x="310.2" y="447.4" fill="#642D10" width="1" height="19.8"/>
				</g>
				<g id="XMLID_506_">
					<g id="XMLID_508_">
						
							<rect id="XMLID_17_" x="298.9" y="447.8" transform="matrix(0.9968 8.005565e-002 -8.005565e-002 0.9968 37.6733 -22.4964)" fill="#642D10" width="1" height="21.6"/>
					</g>
					<g id="XMLID_507_">
						
							<rect id="XMLID_16_" x="311.2" y="458.1" transform="matrix(8.051517e-002 0.9968 -0.9968 8.051517e-002 753.2242 100.6508)" fill="#642D10" width="21.6" height="1"/>
					</g>
				</g>
				<path id="XMLID_505_" fill="#642D10" d="M322.6,448.1c0,0.5-5.3,1.9-11.9,1.9s-11.9-1.4-11.9-1.9s5.3-3.4,11.9-3.4
					S322.6,447.6,322.6,448.1z"/>
				<g id="XMLID_498_">
					<path id="XMLID_504_" fill="#FFFFFF" d="M384.7,296.3c-20-30.7-74-30.7-74-30.7s-54,0-74,30.7c-16.3,25-12.7,52,7.3,80.7
						c20,28.7,55.3,62,55.3,62h11.3H322c0,0,35.3-33.3,55.3-62C397.4,348.3,401,321.3,384.7,296.3z"/>
					<path id="XMLID_503_" fill="#F16672" d="M377,294c-16.5-28.3-66.3-28.3-66.3-28.3s-48.3,0-65.8,27.3
						c-15.5,24.2-10.1,55.3,7.4,84c17.5,28.7,48.4,62,48.4,62h9.9h9.9c0,0,30.9-33.3,48.4-62C386.7,348.3,391.5,318.8,377,294z"/>
					<path id="XMLID_502_" fill="#FFFFFF" d="M366.7,288.6c-12.1-21.5-55.9-23-55.9-23s-43.3,0.5-55.4,22
						c-12.1,21.5-11.3,57.8,13.2,97.3s34.5,54,34.5,54h7.8h7.8c0,0,10-14.5,34.5-54S378.8,310.1,366.7,288.6z"/>
					<path id="XMLID_501_" fill="#F16672" d="M305.4,439c0,0-18.7-37.3-35.3-83.7c-16.7-46.3-8-70.3,5-80
						c12.6-9.3,34.2-9.7,35.7-9.7v0c0,0,0,0,0,0c0,0,0,0,0,0v0c1.5,0,23.1,0.3,35.7,9.7c13,9.7,21.7,33.7,5,80
						c-16.7,46.3-35.3,83.7-35.3,83.7H305.4z"/>
					<path id="XMLID_500_" fill="#FFFFFF" d="M308.7,439c0,0-10.1-35.3-19.9-66.7s-13.6-68.3-7.7-87.7c5.2-17,25.2-18.8,30-19l0,0
						c0,0,0.2,0,0.5,0c0.3,0,0.5,0,0.5,0v0c4.8,0.2,24.8,2,30,19c5.9,19.3,2.1,56.3-7.7,87.7S314.7,439,314.7,439H308.7z"/>
					<path id="XMLID_499_" fill="#F16672" d="M323.8,280.6c-1.4-13-11.5-15-11.5-15s-10.1,2-11.5,15c-4.7,43,10,158.3,10,158.3h1.5
						h1.5C313.8,439,328.4,323.6,323.8,280.6z"/>
				</g>
				<path id="XMLID_497_" fill="#F16672" d="M298.8,448.1c2.6-0.8,6.6-1.7,12.1-1.7c5.3,0,9.2,0.8,11.6,1.6v-4
					c0-3.2,1.2-6.4,3.4-8.8c0,0-4.7-3.1-15-3.1c-10.3,0-15.5,3.1-15.5,3.1c2.2,2.4,3.4,5.5,3.4,8.8V448.1z"/>
				<g id="XMLID_491_">
					<path id="XMLID_496_" fill="#642D10" d="M323.3,466.1c0-0.6-5.6-1.1-12.6-1.1s-12.6,0.5-12.6,1.1c0,0,0,0.1,0,0.1h0v21.9
						c0,0.6,5.6,1.1,12.6,1.1s12.6-0.5,12.6-1.1V466.1L323.3,466.1C323.3,466.1,323.3,466.1,323.3,466.1z"/>
					<g id="XMLID_494_">
						<path id="XMLID_495_" fill="#F16672" d="M298.1,487.8v0.2c0,0.6,5.6,1.1,12.6,1.1s12.6-0.5,12.6-1.1v-0.3
							c-2.6-1-6.7-1.9-12.3-1.9C305.1,485.8,300.8,486.9,298.1,487.8z"/>
					</g>
					<g id="XMLID_492_">
						<path id="XMLID_493_" fill="#F16672" d="M323.9,466c0-0.6-5.9-1.1-13.2-1.1s-13.2,0.5-13.2,1.1c0,0,0,0.1,0,0.1h0v2.8
							c0,0.3,0.3,0.6,0.5,0.5c1.6-0.5,6.7-0.8,12.7-0.8c6,0,11,0.3,12.7,0.8c0.3,0.1,0.5-0.2,0.5-0.5V466L323.9,466
							C323.9,466.1,323.9,466.1,323.9,466z"/>
					</g>
				</g>
			</g>
			<g id="XMLID_329_">
				<g id="XMLID_331_">
					<path id="XMLID_334_" fill="#006838" d="M816.4,784.2c-2.1-10.9-11.8-19.2-23.3-19.2c-13.1,0-23.8,10.6-23.8,23.8
						c0,0.1,0,0.2,0,0.3c-13,2-23,13.3-23,26.9c0,15,12.2,27.2,27.2,27.2c8.9,0,16.9-4.3,21.9-11c4.7,3.8,10.7,6.1,17.2,6.1
						c15,0,27.2-12.2,27.2-27.2C839.8,797.4,829.6,786,816.4,784.2z"/>
					<path id="XMLID_333_" fill="#024F28" d="M809.2,805.6c-1.5-7.6-8.2-13.3-16.2-13.3c-9.1,0-16.5,7.4-16.5,16.5
						c0,0.1,0,0.2,0,0.2c-9,1.4-15.9,9.2-15.9,18.7c0,6.1,2.9,11.6,7.5,15c1.8,0.4,3.6,0.5,5.4,0.5c8.9,0,16.9-4.3,21.9-11
						c4.7,3.8,10.7,6.1,17.2,6.1c2.7,0,5.3-0.4,7.7-1.1c3.2-3.4,5.2-7.9,5.2-13C825.5,814.8,818.4,806.9,809.2,805.6z"/>
					<path id="XMLID_332_" fill="#F6C785" d="M814.4,807.8l-26.6,17.9l-16.1-7.5c5.1,10.5,5.8,20.9,5.8,20.9l-5.8,53.5h6.7h8.9h11.4
						h9.2h6.4l-6-55.7L814.4,807.8z"/>
				</g>
				<polygon id="XMLID_330_" fill="#EF8B46" points="814.4,807.8 788.1,825.5 788.1,892.6 798.8,892.6 808,892.6 814.4,892.6 
					808.4,836.9 				"/>
			</g>
			<g id="XMLID_918_">
				<g id="XMLID_920_">
					<path id="XMLID_923_" fill="#006838" d="M1067.8,838c-2.1-10.9-11.8-19.2-23.3-19.2c-13.1,0-23.8,10.6-23.8,23.8
						c0,0.1,0,0.2,0,0.3c-13,2-23,13.3-23,26.9c0,15,12.2,27.2,27.2,27.2c8.9,0,16.9-4.3,21.9-11c4.7,3.8,10.7,6.1,17.2,6.1
						c15,0,27.2-12.2,27.2-27.2C1091.2,851.2,1081.1,839.8,1067.8,838z"/>
					<path id="XMLID_922_" fill="#024F28" d="M1060.7,859.4c-1.5-7.6-8.2-13.3-16.2-13.3c-9.1,0-16.5,7.4-16.5,16.5
						c0,0.1,0,0.2,0,0.2c-9,1.4-15.9,9.2-15.9,18.7c0,6.1,2.9,11.6,7.5,15c1.8,0.4,3.6,0.5,5.4,0.5c8.9,0,16.9-4.3,21.9-11
						c4.7,3.8,10.7,6.1,17.2,6.1c2.7,0,5.3-0.4,7.7-1.1c3.2-3.4,5.2-7.9,5.2-13C1076.9,868.6,1069.9,860.7,1060.7,859.4z"/>
					<path id="XMLID_921_" fill="#F6C785" d="M1065.9,861.6l-26.6,17.9l-16.1-7.5c5.1,10.5,5.8,20.9,5.8,20.9l-5.8,53.5h6.7h8.9
						h11.4h9.2h6.4l-6-55.7L1065.9,861.6z"/>
				</g>
				<polygon id="XMLID_919_" fill="#EF8B46" points="1065.9,861.6 1039.6,879.3 1039.6,946.4 1050.2,946.4 1059.4,946.4 
					1065.9,946.4 1059.8,890.7 				"/>
			</g>
			<g id="XMLID_343_">
				<g id="XMLID_345_">
					<path id="XMLID_348_" fill="#006838" d="M1321.7,795.2c-2.1-10.9-11.8-19.2-23.3-19.2c-13.1,0-23.8,10.6-23.8,23.8
						c0,0.1,0,0.2,0,0.3c-13,2-23,13.3-23,26.9c0,15,12.2,27.2,27.2,27.2c8.9,0,16.9-4.3,21.9-11c4.7,3.8,10.7,6.1,17.2,6.1
						c15,0,27.2-12.2,27.2-27.2C1345.1,808.4,1335,797.1,1321.7,795.2z"/>
					<path id="XMLID_347_" fill="#024F28" d="M1314.6,816.6c-1.5-7.6-8.2-13.3-16.2-13.3c-9.1,0-16.5,7.4-16.5,16.5
						c0,0.1,0,0.2,0,0.2c-9,1.4-15.9,9.2-15.9,18.7c0,6.1,2.9,11.6,7.5,15c1.8,0.4,3.6,0.5,5.4,0.5c8.9,0,16.9-4.3,21.9-11
						c4.7,3.8,10.7,6.1,17.2,6.1c2.7,0,5.3-0.4,7.7-1.1c3.2-3.4,5.2-7.9,5.2-13C1330.8,825.8,1323.7,817.9,1314.6,816.6z"/>
					<path id="XMLID_346_" fill="#F6C785" d="M1319.8,818.8l-26.6,17.9l-16.1-7.5c5.1,10.5,5.8,20.9,5.8,20.9l-5.8,53.5h6.7h8.9
						h11.4h9.2h6.4l-6-55.7L1319.8,818.8z"/>
				</g>
				<polygon id="XMLID_344_" fill="#EF8B46" points="1319.8,818.8 1293.5,836.5 1293.5,903.6 1304.1,903.6 1313.3,903.6 
					1319.8,903.6 1313.7,847.9 				"/>
			</g>
			<g id="XMLID_832_">
				<g id="XMLID_834_">
					<path id="XMLID_837_" fill="#006838" d="M1228.2,741.7c-2.1-10.9-11.8-19.2-23.3-19.2c-13.1,0-23.8,10.6-23.8,23.8
						c0,0.1,0,0.2,0,0.3c-13,2-23,13.3-23,26.9c0,15,12.2,27.2,27.2,27.2c8.9,0,16.9-4.3,21.9-11c4.7,3.8,10.7,6.1,17.2,6.1
						c15,0,27.2-12.2,27.2-27.2C1251.6,754.9,1241.5,743.6,1228.2,741.7z"/>
					<path id="XMLID_836_" fill="#024F28" d="M1221.1,763.1c-1.5-7.6-8.2-13.3-16.2-13.3c-9.1,0-16.5,7.4-16.5,16.5
						c0,0.1,0,0.2,0,0.2c-9,1.4-15.9,9.2-15.9,18.7c0,6.1,2.9,11.6,7.5,15c1.8,0.4,3.6,0.5,5.4,0.5c8.9,0,16.9-4.3,21.9-11
						c4.7,3.8,10.7,6.1,17.2,6.1c2.7,0,5.3-0.4,7.7-1.1c3.2-3.4,5.2-7.9,5.2-13C1237.3,772.3,1230.3,764.4,1221.1,763.1z"/>
					<path id="XMLID_835_" fill="#F6C785" d="M1226.3,765.3l-26.6,17.9l-16.1-7.5c5.1,10.5,5.8,20.9,5.8,20.9l-5.8,53.5h6.7h8.9
						h11.4h9.2h6.4l-6-55.7L1226.3,765.3z"/>
				</g>
				<polygon id="XMLID_833_" fill="#EF8B46" points="1226.3,765.3 1200,783 1200,850.2 1210.6,850.2 1219.8,850.2 1226.3,850.2 
					1220.2,794.5 				"/>
			</g>
			<g id="XMLID_826_">
				<g id="XMLID_828_">
					<path id="XMLID_831_" fill="#006838" d="M464.1,704.5c-1.6-8.2-8.9-14.5-17.6-14.5c-9.9,0-17.9,8-17.9,17.9c0,0.1,0,0.2,0,0.3
						c-9.8,1.5-17.3,10-17.3,20.3c0,11.3,9.2,20.5,20.5,20.5c6.7,0,12.7-3.3,16.5-8.3c3.5,2.9,8,4.6,13,4.6
						c11.3,0,20.5-9.2,20.5-20.5C481.7,714.5,474.1,706,464.1,704.5z"/>
					<path id="XMLID_830_" fill="#024F28" d="M458.7,720.7c-1.1-5.7-6.2-10-12.2-10c-6.9,0-12.4,5.6-12.4,12.4c0,0.1,0,0.1,0,0.2
						c-6.8,1.1-12,7-12,14.1c0,4.6,2.2,8.7,5.6,11.3c1.3,0.3,2.7,0.4,4.1,0.4c6.7,0,12.7-3.3,16.5-8.3c3.5,2.9,8,4.6,13,4.6
						c2,0,4-0.3,5.8-0.8c2.4-2.6,3.9-6,3.9-9.8C470.9,727.6,465.6,721.7,458.7,720.7z"/>
					<path id="XMLID_829_" fill="#F6C785" d="M462.6,722.4l-20.1,13.5l-12.2-5.6c3.8,7.9,4.4,15.7,4.4,15.7l-4.4,40.4h5.1h6.7h8.6h7
						h4.8l-4.5-42L462.6,722.4z"/>
				</g>
				<polygon id="XMLID_827_" fill="#EF8B46" points="462.6,722.4 442.8,735.7 442.8,786.4 450.8,786.4 457.7,786.4 462.6,786.4 
					458,744.3 				"/>
			</g>
			<g id="XMLID_924_">
				<g id="XMLID_926_">
					<path id="XMLID_929_" fill="#006838" d="M591,752.7c-1.6-8.2-8.9-14.5-17.6-14.5c-9.9,0-17.9,8-17.9,17.9c0,0.1,0,0.2,0,0.3
						c-9.8,1.5-17.3,10-17.3,20.3c0,11.3,9.2,20.5,20.5,20.5c6.7,0,12.7-3.3,16.5-8.3c3.5,2.9,8,4.6,13,4.6
						c11.3,0,20.5-9.2,20.5-20.5C608.6,762.7,601,754.1,591,752.7z"/>
					<path id="XMLID_928_" fill="#024F28" d="M585.6,768.8c-1.1-5.7-6.2-10-12.2-10c-6.9,0-12.4,5.6-12.4,12.4c0,0.1,0,0.1,0,0.2
						c-6.8,1.1-12,7-12,14.1c0,4.6,2.2,8.7,5.6,11.3c1.3,0.3,2.7,0.4,4.1,0.4c6.7,0,12.7-3.3,16.5-8.3c3.5,2.9,8,4.6,13,4.6
						c2,0,4-0.3,5.8-0.8c2.4-2.6,3.9-6,3.9-9.8C597.8,775.8,592.5,769.8,585.6,768.8z"/>
					<path id="XMLID_927_" fill="#F6C785" d="M589.5,770.5L569.4,784l-12.2-5.6c3.8,7.9,4.4,15.7,4.4,15.7l-4.4,40.4h5.1h6.7h8.6h7
						h4.8l-4.5-42L589.5,770.5z"/>
				</g>
				<polygon id="XMLID_925_" fill="#EF8B46" points="589.5,770.5 569.7,783.9 569.7,834.5 577.7,834.5 584.6,834.5 589.5,834.5 
					584.9,792.5 				"/>
			</g>
			<g id="XMLID_349_">
				<g id="XMLID_351_">
					<path id="XMLID_354_" fill="#006838" d="M111.2,570c-1.3-6.5-7-11.4-13.9-11.4c-7.8,0-14.2,6.3-14.2,14.2c0,0.1,0,0.1,0,0.2
						c-7.8,1.2-13.7,7.9-13.7,16c0,9,7.3,16.2,16.2,16.2c5.3,0,10.1-2.6,13-6.5c2.8,2.3,6.4,3.6,10.2,3.6c9,0,16.2-7.3,16.2-16.2
						C125.2,577.9,119.1,571.1,111.2,570z"/>
					<path id="XMLID_353_" fill="#024F28" d="M107,582.7c-0.9-4.5-4.9-7.9-9.6-7.9c-5.4,0-9.8,4.4-9.8,9.8c0,0,0,0.1,0,0.1
						c-5.4,0.8-9.5,5.5-9.5,11.1c0,3.7,1.7,6.9,4.5,9c1,0.2,2.1,0.3,3.2,0.3c5.3,0,10.1-2.6,13-6.5c2.8,2.3,6.4,3.6,10.2,3.6
						c1.6,0,3.2-0.2,4.6-0.7c1.9-2,3.1-4.7,3.1-7.7C116.6,588.2,112.4,583.5,107,582.7z"/>
					<path id="XMLID_352_" fill="#F6C785" d="M110,584l-15.9,10.7l-9.6-4.5c3,6.2,3.4,12.4,3.4,12.4l-3.4,31.9h4h5.3h6.8h5.5h3.8
						l-3.6-33.2L110,584z"/>
				</g>
				<polygon id="XMLID_350_" fill="#EF8B46" points="110,584 94.4,594.6 94.4,634.6 100.7,634.6 106.2,634.6 110,634.6 106.5,601.4 
									"/>
			</g>
			<g id="XMLID_355_">
				<g id="XMLID_357_">
					<path id="XMLID_360_" fill="#006838" d="M225.8,626.2c-1.3-6.5-7-11.4-13.9-11.4c-7.8,0-14.2,6.3-14.2,14.2c0,0.1,0,0.1,0,0.2
						c-7.8,1.2-13.7,7.9-13.7,16c0,9,7.3,16.2,16.2,16.2c5.3,0,10.1-2.6,13-6.5c2.8,2.3,6.4,3.6,10.2,3.6c9,0,16.2-7.3,16.2-16.2
						C239.8,634.1,233.7,627.3,225.8,626.2z"/>
					<path id="XMLID_359_" fill="#024F28" d="M221.5,639c-0.9-4.5-4.9-7.9-9.6-7.9c-5.4,0-9.8,4.4-9.8,9.8c0,0,0,0.1,0,0.1
						c-5.4,0.8-9.5,5.5-9.5,11.1c0,3.7,1.7,6.9,4.5,9c1,0.2,2.1,0.3,3.2,0.3c5.3,0,10.1-2.6,13-6.5c2.8,2.3,6.4,3.6,10.2,3.6
						c1.6,0,3.2-0.2,4.6-0.7c1.9-2,3.1-4.7,3.1-7.7C231.2,644.5,227,639.8,221.5,639z"/>
					<path id="XMLID_358_" fill="#F6C785" d="M224.6,640.3L208.8,651l-9.6-4.5c3,6.2,3.4,12.4,3.4,12.4l-3.4,31.9h4h5.3h6.8h5.5h3.8
						l-3.6-33.2L224.6,640.3z"/>
				</g>
				<polygon id="XMLID_356_" fill="#EF8B46" points="224.6,640.3 209,650.9 209,690.9 215.3,690.9 220.8,690.9 224.6,690.9 
					221,657.7 				"/>
			</g>
			<g id="XMLID_361_">
				<g id="XMLID_363_">
					<path id="XMLID_366_" fill="#006838" d="M1172.1,588.2c-1.3-6.5-7-11.4-13.9-11.4c-7.8,0-14.2,6.3-14.2,14.2c0,0.1,0,0.1,0,0.2
						c-7.8,1.2-13.7,7.9-13.7,16c0,9,7.3,16.2,16.2,16.2c5.3,0,10.1-2.6,13-6.5c2.8,2.3,6.4,3.6,10.2,3.6c9,0,16.2-7.3,16.2-16.2
						C1186,596.1,1180,589.3,1172.1,588.2z"/>
					<path id="XMLID_365_" fill="#024F28" d="M1167.8,600.9c-0.9-4.5-4.9-7.9-9.6-7.9c-5.4,0-9.8,4.4-9.8,9.8c0,0,0,0.1,0,0.1
						c-5.4,0.8-9.5,5.5-9.5,11.1c0,3.7,1.7,6.9,4.5,9c1,0.2,2.1,0.3,3.2,0.3c5.3,0,10.1-2.6,13-6.5c2.8,2.3,6.4,3.6,10.2,3.6
						c1.6,0,3.2-0.2,4.6-0.7c1.9-2,3.1-4.7,3.1-7.7C1177.5,606.4,1173.3,601.7,1167.8,600.9z"/>
					<path id="XMLID_364_" fill="#F6C785" d="M1170.9,602.3l-15.9,10.7l-9.6-4.5c3,6.2,3.4,12.4,3.4,12.4l-3.4,31.9h4h5.3h6.8h5.5
						h3.8l-3.6-33.2L1170.9,602.3z"/>
				</g>
				<polygon id="XMLID_362_" fill="#EF8B46" points="1170.9,602.3 1155.2,612.8 1155.2,652.9 1161.5,652.9 1167.1,652.9 
					1170.9,652.9 1167.3,619.6 				"/>
			</g>
			<g id="XMLID_367_">
				<g id="XMLID_844_">
					<path id="XMLID_847_" fill="#006838" d="M1240.2,611.5c-1.3-6.5-7-11.4-13.9-11.4c-7.8,0-14.2,6.3-14.2,14.2c0,0.1,0,0.1,0,0.2
						c-7.8,1.2-13.7,7.9-13.7,16c0,9,7.3,16.2,16.2,16.2c5.3,0,10.1-2.6,13-6.5c2.8,2.3,6.4,3.6,10.2,3.6c9,0,16.2-7.3,16.2-16.2
						C1254.1,619.4,1248.1,612.6,1240.2,611.5z"/>
					<path id="XMLID_846_" fill="#024F28" d="M1235.9,624.3c-0.9-4.5-4.9-7.9-9.6-7.9c-5.4,0-9.8,4.4-9.8,9.8c0,0,0,0.1,0,0.1
						c-5.4,0.8-9.5,5.5-9.5,11.1c0,3.7,1.7,6.9,4.5,9c1,0.2,2.1,0.3,3.2,0.3c5.3,0,10.1-2.6,13-6.5c2.8,2.3,6.4,3.6,10.2,3.6
						c1.6,0,3.2-0.2,4.6-0.7c1.9-2,3.1-4.7,3.1-7.7C1245.6,629.8,1241.4,625.1,1235.9,624.3z"/>
					<path id="XMLID_845_" fill="#F6C785" d="M1239,625.6l-15.9,10.7l-9.6-4.5c3,6.2,3.4,12.4,3.4,12.4l-3.4,31.9h4h5.3h6.8h5.5h3.8
						l-3.6-33.2L1239,625.6z"/>
				</g>
				<polygon id="XMLID_819_" fill="#EF8B46" points="1239,625.6 1223.3,636.2 1223.3,676.2 1229.7,676.2 1235.2,676.2 1239,676.2 
					1235.4,643 				"/>
			</g>
			<g id="XMLID_848_">
				<g id="XMLID_850_">
					<path id="XMLID_853_" fill="#006838" d="M1006.7,649.6c-1.3-6.5-7-11.4-13.9-11.4c-7.8,0-14.2,6.3-14.2,14.2c0,0.1,0,0.1,0,0.2
						c-7.8,1.2-13.7,7.9-13.7,16c0,9,7.3,16.2,16.2,16.2c5.3,0,10.1-2.6,13-6.5c2.8,2.3,6.4,3.6,10.2,3.6c9,0,16.2-7.3,16.2-16.2
						C1020.7,657.5,1014.6,650.7,1006.7,649.6z"/>
					<path id="XMLID_852_" fill="#024F28" d="M1002.5,662.3c-0.9-4.5-4.9-7.9-9.6-7.9c-5.4,0-9.8,4.4-9.8,9.8c0,0,0,0.1,0,0.1
						c-5.4,0.8-9.5,5.5-9.5,11.1c0,3.7,1.7,6.9,4.5,9c1,0.2,2.1,0.3,3.2,0.3c5.3,0,10.1-2.6,13-6.5c2.8,2.3,6.4,3.6,10.2,3.6
						c1.6,0,3.2-0.2,4.6-0.7c1.9-2,3.1-4.7,3.1-7.7C1012.2,667.8,1007.9,663.1,1002.5,662.3z"/>
					<path id="XMLID_851_" fill="#F6C785" d="M1005.6,663.6l-15.9,10.7l-9.6-4.5c3,6.2,3.4,12.4,3.4,12.4l-3.4,31.9h4h5.3h6.8h5.5
						h3.8L1002,681L1005.6,663.6z"/>
				</g>
				<polygon id="XMLID_849_" fill="#EF8B46" points="1005.6,663.6 989.9,674.2 989.9,714.2 996.2,714.2 1001.7,714.2 1005.6,714.2 
					1002,681 				"/>
			</g>
			<g id="XMLID_838_">
				<g id="XMLID_840_">
					<path id="XMLID_843_" fill="#006838" d="M728.7,593.9c-1.6-8.2-8.9-14.5-17.6-14.5c-9.9,0-17.9,8-17.9,17.9c0,0.1,0,0.2,0,0.3
						c-9.8,1.5-17.3,10-17.3,20.3c0,11.3,9.2,20.5,20.5,20.5c6.7,0,12.7-3.3,16.5-8.3c3.5,2.9,8,4.6,13,4.6
						c11.3,0,20.5-9.2,20.5-20.5C746.3,603.9,738.6,595.3,728.7,593.9z"/>
					<path id="XMLID_842_" fill="#024F28" d="M723.3,610c-1.1-5.7-6.2-10-12.2-10c-6.9,0-12.4,5.6-12.4,12.4c0,0.1,0,0.1,0,0.2
						c-6.8,1.1-12,7-12,14.1c0,4.6,2.2,8.7,5.6,11.3c1.3,0.3,2.7,0.4,4.1,0.4c6.7,0,12.7-3.3,16.5-8.3c3.5,2.9,8,4.6,13,4.6
						c2,0,4-0.3,5.8-0.8c2.4-2.6,3.9-6,3.9-9.8C735.5,617,730.2,611,723.3,610z"/>
					<path id="XMLID_841_" fill="#F6C785" d="M727.2,611.7l-20.1,13.5l-12.2-5.6c3.8,7.9,4.4,15.7,4.4,15.7l-4.4,40.4h5.1h6.7h8.6h7
						h4.8l-4.5-42L727.2,611.7z"/>
				</g>
				<polygon id="XMLID_839_" fill="#EF8B46" points="727.2,611.7 707.3,625.1 707.3,675.7 715.3,675.7 722.3,675.7 727.2,675.7 
					722.6,633.7 				"/>
			</g>
			<g id="XMLID_854_">
				<g id="XMLID_856_">
					<path id="XMLID_859_" fill="#006838" d="M649.5,619.2c-1.6-8.2-8.9-14.5-17.6-14.5c-9.9,0-17.9,8-17.9,17.9c0,0.1,0,0.2,0,0.3
						c-9.8,1.5-17.3,10-17.3,20.3c0,11.3,9.2,20.5,20.5,20.5c6.7,0,12.7-3.3,16.5-8.3c3.5,2.9,8,4.6,13,4.6
						c11.3,0,20.5-9.2,20.5-20.5C667.2,629.2,659.5,620.6,649.5,619.2z"/>
					<path id="XMLID_858_" fill="#024F28" d="M644.1,635.3c-1.1-5.7-6.2-10-12.2-10c-6.9,0-12.4,5.6-12.4,12.4c0,0.1,0,0.1,0,0.2
						c-6.8,1.1-12,7-12,14.1c0,4.6,2.2,8.7,5.6,11.3c1.3,0.3,2.7,0.4,4.1,0.4c6.7,0,12.7-3.3,16.5-8.3c3.5,2.9,8,4.6,13,4.6
						c2,0,4-0.3,5.8-0.8c2.4-2.6,3.9-6,3.9-9.8C656.3,642.3,651,636.3,644.1,635.3z"/>
					<path id="XMLID_857_" fill="#F6C785" d="M648,637L628,650.5l-12.2-5.6c3.8,7.9,4.4,15.7,4.4,15.7l-4.4,40.4h5.1h6.7h8.6h7h4.8
						l-4.5-42L648,637z"/>
				</g>
				<polygon id="XMLID_855_" fill="#EF8B46" points="648,637 628.2,650.4 628.2,701 636.2,701 643.2,701 648,701 643.5,659 				"/>
			</g>
			<g id="XMLID_820_">
				<g id="XMLID_822_">
					<path id="XMLID_825_" fill="#006838" d="M204.6,754.4c-2.8-14.2-15.3-24.9-30.4-24.9c-17.1,0-30.9,13.8-30.9,30.9
						c0,0.1,0,0.3,0,0.4c-16.9,2.7-29.9,17.3-29.9,35c0,19.6,15.9,35.4,35.4,35.4c11.6,0,22-5.6,28.4-14.3c6.1,5,13.9,7.9,22.3,7.9
						c19.6,0,35.4-15.9,35.4-35.4C235.1,771.6,221.8,756.8,204.6,754.4z"/>
					<path id="XMLID_824_" fill="#024F28" d="M195.3,782.3c-1.9-9.9-10.6-17.3-21-17.3c-11.8,0-21.4,9.6-21.4,21.4
						c0,0.1,0,0.2,0,0.3c-11.7,1.8-20.7,12-20.7,24.3c0,8,3.8,15.1,9.7,19.6c2.3,0.5,4.6,0.7,7.1,0.7c11.6,0,22-5.6,28.4-14.3
						c6.1,5,13.9,7.9,22.3,7.9c3.5,0,6.9-0.5,10.1-1.5c4.2-4.4,6.7-10.3,6.7-16.9C216.4,794.2,207.2,784,195.3,782.3z"/>
					<path id="XMLID_823_" fill="#F6C785" d="M202,785.1l-34.6,23.3l-21-9.7c6.6,13.6,7.5,27.1,7.5,27.1l-7.5,69.6h8.7h11.6h14.8h12
						h8.4l-7.8-72.5L202,785.1z"/>
				</g>
				<polygon id="XMLID_821_" fill="#EF8B46" points="202,785.1 167.9,808.2 167.9,895.5 181.7,895.5 193.7,895.5 202,895.5 
					194.2,823 				"/>
			</g>
			<g id="XMLID_912_">
				<g id="XMLID_914_">
					<path id="XMLID_917_" fill="#006838" d="M108.3,823.1c-2.8-14.2-15.3-24.9-30.4-24.9C60.9,798.1,47,812,47,829.1
						c0,0.1,0,0.3,0,0.4c-16.9,2.7-29.9,17.3-29.9,35c0,19.6,15.9,35.4,35.4,35.4c11.6,0,22-5.6,28.4-14.3c6.1,5,13.9,7.9,22.3,7.9
						c19.6,0,35.4-15.9,35.4-35.4C138.8,840.3,125.5,825.5,108.3,823.1z"/>
					<path id="XMLID_916_" fill="#024F28" d="M99,850.9c-1.9-9.9-10.6-17.3-21-17.3c-11.8,0-21.4,9.6-21.4,21.4c0,0.1,0,0.2,0,0.3
						c-11.7,1.8-20.7,12-20.7,24.3c0,8,3.8,15.1,9.7,19.6c2.3,0.5,4.6,0.7,7.1,0.7c11.6,0,22-5.6,28.4-14.3c6.1,5,13.9,7.9,22.3,7.9
						c3.5,0,6.9-0.5,10.1-1.5c4.2-4.4,6.7-10.3,6.7-16.9C120.1,862.9,110.9,852.6,99,850.9z"/>
					<path id="XMLID_915_" fill="#F6C785" d="M105.8,853.8l-34.6,23.3l-21-9.7c6.6,13.6,7.5,27.1,7.5,27.1l-7.5,69.6h8.7h11.6h14.8
						h12h8.4l-7.8-72.5L105.8,853.8z"/>
				</g>
				<polygon id="XMLID_913_" fill="#EF8B46" points="105.8,853.8 71.6,876.8 71.6,964.1 85.4,964.1 97.4,964.1 105.8,964.1 
					97.9,891.7 				"/>
			</g>
			<g id="XMLID_999_">
				<ellipse id="XMLID_192_" fill="#D1D3D4" cx="312.2" cy="910" rx="41.1" ry="14.5"/>
				<ellipse id="XMLID_580_" fill="#D1D3D4" cx="839.8" cy="892.6" rx="41.1" ry="14.5"/>
				<ellipse id="XMLID_581_" fill="#D1D3D4" cx="1245.6" cy="946.4" rx="41.1" ry="14.5"/>
				<ellipse id="XMLID_576_" fill="#D1D3D4" cx="130.9" cy="654.5" rx="23.3" ry="8.2"/>
				<ellipse id="XMLID_577_" fill="#D1D3D4" cx="621.9" cy="714.2" rx="23.3" ry="8.2"/>
				<ellipse id="XMLID_578_" fill="#D1D3D4" cx="481.7" cy="754.4" rx="23.3" ry="8.2"/>
				<ellipse id="XMLID_579_" fill="#D1D3D4" cx="1084.9" cy="665.6" rx="13" ry="4.6"/>
			</g>
		</g>
	</g>
</g>
</svg>
