<?xml version="1.0" encoding="utf-8"?>
<!-- Generator: Adobe Illustrator 18.0.0, SVG Export Plug-In . SVG Version: 6.00 Build 0)  -->
<!DOCTYPE svg PUBLIC "-//W3C//DTD SVG 1.1//EN" "http://www.w3.org/Graphics/SVG/1.1/DTD/svg11.dtd">
<svg version="1.1" id="Layer_1" xmlns="http://www.w3.org/2000/svg" xmlns:xlink="http://www.w3.org/1999/xlink" x="0px" y="0px"
	 viewBox="0 0 1400 980" enable-background="new 0 0 1400 980" xml:space="preserve">
<g>
	<defs>
		<rect id="SVGID_3_" width="1400" height="980"/>
	</defs>
	<clipPath id="SVGID_2_">
		<use xlink:href="#SVGID_3_"  overflow="visible"/>
	</clipPath>
	<g clip-path="url(#SVGID_2_)">
		<g>
			<path fill="#FDDF83" d="M848.3,221.7C1039.7,185.9,1233,120.6,1383.1,0H875.4c-113,68.7-242.4,111.3-373.4,133.5
				c-165.4,28-334.4,25.2-501.9,14.9v68.5C279,272.3,568.7,274,848.3,221.7z"/>
			<path fill="#FEE6A6" d="M501.9,133.5C632.9,111.3,762.3,68.7,875.4,0H435.2C295.9,49.8,148,75.7,0,75.8v72.6
				C167.6,158.7,336.5,161.5,501.9,133.5z"/>
			<path fill="#FFF0CD" d="M435.2,0H0v75.8C148,75.7,295.9,49.8,435.2,0z"/>
			<path fill="#FDD836" d="M741.5,375.2c226.7-12.1,454.3-59.2,658.5-157V0h-16.9C1233,120.6,1039.7,185.9,848.3,221.7
				C568.7,274,279,272.3,0,216.9V323C245.4,361.3,493.6,388.4,741.5,375.2z"/>
			<path fill="#F8A725" d="M760.8,593C508.3,618.8,253.7,608.6,0,597v53.6c194.7,24.2,391.8,24.9,588.2,25.5
				c48.2,0.1,96.4,0.3,144.6,0.4c52.6,0.2,105.2,0.3,157.8,0.5c69.2,0.2,138.4,0.4,207.4-5.4c103-8.6,204.8-30.7,302.1-65.4V422.5
				C1201.5,519.3,981.2,570.5,760.8,593z"/>
			<path fill="#F8BE2D" d="M760.8,593c220.4-22.5,440.7-73.7,639.2-170.5V218.2c-204.2,97.8-431.8,144.9-658.5,157
				C493.6,388.4,245.4,361.3,0,323v274C253.7,608.6,508.3,618.8,760.8,593z"/>
			<path fill="#F17C21" d="M890.5,677c-52.6-0.2-105.2-0.3-157.8-0.5c-48.2-0.1-96.4-0.3-144.6-0.4c-196.4-0.6-393.5-1.3-588.2-25.5
				V980h1400V606.2c-97.3,34.7-199.1,56.8-302.1,65.4C1029,677.4,959.7,677.2,890.5,677z"/>
		</g>
		<path fill="#A97C50" d="M75,893c43.8,31.7,102.1,20.6,152.8,26c143.1,15.2,287.1,14.9,430.9,19.7c179.3,6,359.7,7.3,538.8,6.3
			c71.6-0.4,164.9,4.4,228.5-35.9c1.2,0.7,0.4-0.9,2-5.7c1-3.2,2.4-6.9,3.1-10.2c1.6-8,0.4-14.2-0.8-22
			c-3.6-22.4-11.1-37.2-20.1-57.9c-7.7-17.8-9.2-37.5-6.3-56.4c1.2-7.6,3-16,6-23.1c1.6-3.7,6.4-7.6,4.9-12
			c-2.5-7.2-16.3-6-21.5-8.4c-7.2-3.3-6.9-9.1-15.4-11.3c-4.1-1.1-9.9,0-14.2-0.1c-7.9-0.1-22.1,0.2-28.4-4.9
			c-3.7-3-0.4-7.3-6.8-9.3c-3.8-1.2-10.9,2-11.5,3.2c0.7,1.5,0.6,2.9-0.2,4.2c-8.8,2.5-12.1-2-15.9,6.2c-2.9,6.3,2,16.1-1,22.9
			c-4.9,11.2-7.6,3.1-14.2,6.6c-6.3,3.3-2.8,1.1-5.7,8c-3.3,8-1.4,21.3-8.9,26.9c-6,4.5-14.1,0.1-20.3,1.4c-4.2,0.9-6.5,3.7-9.4,4.6
			c-15.9,4.7-40.4-3.1-52.4-14.8c-9.4-9.2-10-14.6-20.9-7c-5.5,3.8-6.2,8.1-14,7.3c-8.2-0.8-18.4-9-22.2-16.1
			c-5.4,5.5-8.5,11.4-16.1,12.9c-8.5,1.7-15.1-5.5-23.2-4.8c-4.7,0.4-8.4,5.7-13.6,4.9c-3.6-0.6-4.7-4.6-7.1-5.3
			c-5.1-1.4-9-3.7-14,2.1c-2.2,2.6-7-8.2-12.7-7.3c-5.8,0.9-2.5,6.2-6.2,8.1c-6.3,3.4-20.5,1.7-26.3-0.9c-3.3-1.5-4.8-5.2-8.2-6
			c-2.7-0.6-5.8,1.6-8.2,1.1c-7.6-1.5-3.4,0-8.8-3.9c-6.7-4.7-6.9-12.9-17-4.8c-4.4,3.5-5.6,10.4-7.7,14.7c-4.8-3-8.5-5.2-13.9-6.1
			c-4-0.7-8.1,1.1-11.3-1c-4-2.7,0-7.6-6.6-7.8c-2.9-0.1-9.8,2.7-11.1,4.9c-0.7,1.2-1.6,1.8-2.9,2c-7.8-12.1-26.6-17-38.6-22.7
			c-10.8-5.2-22.6-21.2-33.8-17c-9.3,3.5-19.1,15-27.6,20.8c-12.9,8.8-43.6,14.5-48.2,27c-11.3-3.8-14.7-19.8-22.1-27.7
			c-3.7-4-1.4-8.1-9.7-5.7c-3.4,1-9.4,8.3-12.1,11c-2.9-5.4-6.3-8.8-8.2-14.3c-1-2.9,0.8-7.7-1.7-10.3c-2.4-2.6-5.7-0.2-7.6-2
			c-10.4-9.6-0.1-27.1-2.8-41c-12.5,3.2-20.2,17.7-28.8,26.4c-7,7.2-14.5,14.3-22.3,20.6c-3.3,2.6-6.7,6.8-11.2,7.3
			c-2,0.2-2.6-2.9-3.6-2.8c-15.5,0.3-33.2,18.7-37,33.6c-14.7,7.6-10.4-2.7-13.2-10.8c-1.3-3.8-6.6-9.4-8.8-13.2
			c-7.5,6-10.9,16.9-20.3,21.5c-0.7-3.7-2.3-8-4.8-11.1c-14.7-1.2-11.7,22.6-26.8,7.9c-7.1,4.6-8.3,13-10.9,20.5
			c-3.8-8.3-10.2-7.8-16.2-2.4c-1.7,10.4-11.4,1-16.1,1.7c-8,1.1-9.6,8.6-19.8,7.1c-7.3-1.1-10.2-5.5-15.8-8.6
			c-1.4-0.8-0.3-3.6-1.7-4.3c-4.6-2-10.2,0.4-15.3-2.2c-2.4-1.2-5.3-6.1-8-7.9c-1.2-0.8-3.4,0.6-4.4,0c-3.6-2.4-6.4-4.9-9.7-8.2
			c-3.3,1.1-6.7,3.9-9.3,6.1c-12.5-12-13-2.3-23.6,4.2c-11.3,6.8-25.8-3.9-33.4,8.8c-10.5,4.9-7.6-5-13.1-6
			c-4.7-0.9,0.1-1.8-7.2,0.4c-5.5,1.7-7.1,9.8-12.7,1.7c-11.9,11.3-11.9-4.2-21.2-2.7c-6.4,1-4.5,9.7-8.4,12.3
			c-5.8,3.9-14-0.9-20-2.7c-4.3-1.3-6.8-2.3-11.1-2.9c-8.8-1.4-18-5-26.3-6.2c-9.7-1.4-16,5.6-23-5.6c-8.7,8.2-15.9-2.1-23.9-3.1
			c-5.3-0.7-10.5,5.2-16.7,2.6c-4.6-1.9-6.4-7.8-11-10c-3.9-1.9-11.2-0.1-14.3-2.9c-3.1-2.8-1.1-9.3-5.1-12.2
			c-8.1-6-7.5,3.4-13.9,5.2c2.8-11.8-3-6.7-8-10.8c-3.4-2.8-6.1-8.5-11.7-9c-7.6-0.6-8.8,8.7-14.7,9.2c-2.5,0.2-5.6-4.7-8.2-5.4
			c-3.5-0.9-8.5,0.4-11.5-0.8c-4.1-1.7-6.2-7.1-10-7.9c-6.5-1.5-6.5,5.9-11,6.8c-0.4,0.1-11.4-3.6-12.3-4.1
			c-6.3-3.7-8.5-6.8-8.8-14.9c-2.7,1-8.9,4.1-11.8,3.3c-6.1-1.8-2.6-5.7-5.9-10c-4.7-6.2-10.4-6.3-18.3-1.1
			c-49.9,33.2,4.4,126.9,33,170C32.9,872.9,54.4,878.2,75,893z"/>
		<path fill="#8B5E3C" d="M1405,809c-22.3-2.1-47.4,2.6-70.2,2c-19.9-0.5-40.4-0.2-60.2-2.2c-18.7-1.9-38.8-1.2-57.2-4.8
			c11.2-5.9,20.7-13,34.4-14c17.8-1.3,14.1-2,18.6-17.8c1.7-6.3,10-28,18.8-18.4c-1.7-11.2,9.1-18.1,18.9-12.1
			c5.5,3.4,3.7,13.7,14.3,5.4c-5.2-6.2-1.3-16.9,7.7-16.1c-0.8-14.9,19-8.9,24-1.2c-3.6-4.1-4.9-14.9,3.5-13.7
			c0.5-8,11.3-6.1,16.4-10.2c4-3.2,3-11.8,12-6c4.2-10.3,16.2-3.8,24.2-3.9c-6.4,12.4-1,40.3-1,54.8c0,9.8-0.7,19.4-1,29.2
			C1407.8,785.2,1410.2,809.5,1405,809z"/>
		<path fill="#8B5E3C" d="M1094,792c-11.9-0.7-25.2,6.4-36.7,2.1c-4.6-1.7-6.6-6.6-10.7-8.4c-5.5-2.4-8.3,0.8-12.6,0.2
			c-2.3-0.3-4.6-3.8-6.7-3.7c-3.5,0.1-7.4,2.6-9.9,2.7c-5.3,0.2-13.3-2.3-9.5-10.9c-6.8-2.4-21.9-3.1-23.7,6
			c-2.7-6.1-8.2-4.1-11.1,1c-0.1-4-0.8-9.8-4.8-11c-4.6-1.4-8.1,5.9-10,6.3c-5.9,1.1-2.3-1.2-8.2-4.4c-3.3-1.8-4.5-4-8.9-2.1
			c-1.2-5-4.6-6.6-9.1-7.7c-10.2-2.7-10.8,2.2-19.2-3.9c-9.1-6.5-16.8-10.8-15.9,6.8c-9.2-0.9-8.2,7-7.3,13
			c-7.5,1.8-12.4-5.2-12-11.7c-6.2-0.7-23.8-1.4-25.6,4.9c0.3-12.2-3.7-14.3-15.5-12.2c-5.8,1-18,3.9-12.7,12.1
			c-10.6-6.6-6.9,9-7,9.2c-4,5.1-8.3,4.2-13.9,1c-6.8-4-33.4-21-34.1,2c-11.8-4.7-13.8,5.4-10,13.9c-8.2,0.3-18,4.4-12.9,13.2
			c-13.4,6.3-40.5-30.2-48.1-4.2c-5.3-1.5-21.5-12.9-20.8,2.7c-1.5-10.8-13.2-6.3-16.1,1.2c-1.3-7.3-10.2-11.4-13.1-2.4
			c-3.1-3.9-4.5-13.9-8.9-16.7c-1.9-1.3-13.6-1.9-15.4-0.5c-5.6,4-0.7,2.6-2.7,7.8c-4.1,10.8-3.8,7.2-15.1,10.4
			c-8.1,2.3-16.4,6.3-12.8,15.4c-8.3,2.7-11.6,11-17.6,16.6c-7.1,6.5-16.3,8.9-24.7,13.2c-9.4,4.8-35.2,15.8-15.1,21.4
			c16.7,4.7,36.6,2.4,54,5.9c27.9,5.6,55.5,12.8,82.9,20.6c23.6,6.7,47.2,7.7,71.2,11.2c33,4.8,71.7,5.4,104.7,0.1
			c31.1-5,60.2-13.9,89.9-24.2c18.9-6.5,35.4-16.9,54-23.9c30.5-11.5,62.5-16.8,89.5-36c7.6-5.4,24.2-14,22-25.8
			C1102.7,797,1099.4,787.3,1094,792z"/>
		<path fill="#8B5E3C" d="M70,766c6.7-0.8,14.6-9.2,14.3-15.9c5.3-2.2,8.7,0.8,13-0.1c3.9-0.8,5-5.6,11.6-3.2
			c0.2-5.7-6.9-6.6-7.2-11.1c-0.3-6.7,7.5-8.2,10.3-1.8c6.4-7.7,14-3.5,21.9-2.1c-0.2-4.2,1.8-4.6,4.2-7.2
			c6.9,3.8,13.1,15.8,22.1,5.1c2.5-3,4.4-25.2,14.9-11.9c6.5-7.5,14.6-20.6,23-8.8c4.1,5.7-0.8,7.1,1.3,13.7
			c1.2,3.9,6.7,4.8,9.4,8.1c4.3-11.2,19.1-2.7,15.3,6.1c7.3,1.9,7.3,11,13.2,12.8c10.2,3,5.7-9.8,12.8-11c5.7-1,7.2,8.4,10.7,11.3
			c5.7,4.8,12.1,1.5,13.5,12.8c16-23,18.3,8.1,34.6,10c-1.2-21.9,11.8-2.5,17.7,2c8.3,6.4,15.4,16.2,25.1,20.9
			c11.8,5.8,26,6.6,37.3,13c-1.2,9.6-28.1,5.2-35.4,6.4c-30.1,5.3-56.1,22.8-86.8,27.7c-16.2,2.6-33,2.6-49.3,3
			c-17.7,0.4-35.8,3.9-53.5,2.7c-23.4-1.5-41.7-10.2-62.4-19C82.7,821.7,62.1,786.7,70,766z"/>
		<path fill="#754C29" d="M693,878.6c-22-5.2-43.9-22.1-58.2-37.6c-2.3-2.5-5.9-0.8-7.9-4.2c-1.9-3,2.4-9.9,0-13.1
			c-4.3-5.6-6.8-8.7-14.6-3.9c-2-20.4-23-15.9-30.3-3.1c-5.2-26.6-17.2-20-37.3-20.8c0.1-7.4,0.2-15.5-3-22.3
			c-5.1,3.1-7.4,2.2-6.2,7.3c12.1-22.2-16.1-16.2-25.1-6c-2.4-14.2-18.8-9.9-26.2-18c-3.6-4-1.7-15.3-8.4-17.8
			c-6.1-2.3-15.3,6.2-20.8,7.2c2-30.3-26.1-8-31.6,4.9c-4.8-13.1-20.5,3.8-22.8,10.4c-0.8-6.1-4.8-11.3-13.1-10.5
			c-16.1,1.5-3.2,9.3-6.3,14.7c-3.5,6.1,0.4,7.1-12.1,5c-4.4-0.7-12.9-5.1-16.8-6.4c-9.6-3.1-9.6-7.3-20.3-1.5
			c-3.1,1.7-2.9,8.7-8,10.7c-2.2,0.9-7.2-1.9-7.4-1.8c0.1,0-4.7-1.3-7.6-0.1c-3.7,1.6-4.3,7.8-7.5,9.3c-3.5,1.7-9.3,1.9-13.2,0.3
			c0.6,10-2.7,20.6-14.7,18c-0.3,6-1.4,13-6.6,16.5c-4.4-10.8-14-8.8-21.6-9.2c-7.6-0.4-7.2-6.5-15.9-2c-4.7,2.4-6.4,9.5-10.2,12.5
			c-2.5-15.1-24.4-24.7-35.4-20.7c-4.7,1.7-3.5,6.8-9.7,8.4c-5,1.3-17.6-2.8-24-2.7c1.2-10-3-22-13.5-12.2
			c1.8-16.9-13.7-13.1-22.6-7.1c0.3-20.6-2.7-27-25.2-15.2c-2.5-5.1-5.1-10.2-9.4-13.8c-1,2-6.5,5.8-7.5,7.8
			c-4.5-6.1-10.7-6.1-14.7,0c4.1-17.5-15.3-10.4-17.1,4.5c-5.6-5.6-13.2-3.2-15.9-12c-4.3,2.2-9.8,5.3-13.5,7.4
			c3-18.6-14.6-9.8-24-5.8c2.4-0.2,4.9,0.1,7.3-0.1v141.1c20.8,0,40.6-3.6,61.8-3.5c59.3,0.3,119.1-5.6,178,4.2
			c38.1,6.3,76.7,2.4,115.1,6.3c28,2.9,56.7,2.6,84.9,1.9c38.1-0.9,75.6-4.3,113.8-4.6c36.5-0.3,67.4-4.3,102.1-12
			C662.9,886.1,679.8,881.8,693,878.6z"/>
		<path fill="#603913" d="M1418,957c0.7,0.9,1,1.8,0.9,2.9c-20.1,0.6-39.1,3.3-59,6c-14.6,2-29.9,1.4-44.6,2
			c-21.4,0.9-42,6.8-63.3,9.1c-29,3.2-58.5,5.9-87.1,11c-4.8,0.9-23.8,6.3-25.9,1c-38.1-14.7-74.5-3.3-113-6.4
			c-43.1-3.5-85.5,11.8-129.5,9.7c-30.3-1.4-60.5-3.8-90.8-4.3c-27.5-0.5-56.5,1.4-83.8-2.2c-18.1-2.4-59-14.2-68.6-31.4
			c-4.8-8.6-10.8-29.8-7-39.8c3.7-9.9,19.6-27.2,29.8-30.3c9.7-2.9,18.6-2,28.8-6.6c6-2.7,11.7-6.2,17.4-9.8
			c7.1-4.5,13.5-11.1,20.5-15.4c6.1-3.7,12.5-1.2,17.1-4.1c-8.3-4.9-3.5-12.1,5.3-12.2c4.9-0.1,12.7,5.7,16.6,7.9
			c-0.2-7.4,7.5-7.9,10.5-2.7c1-4.1,2.8-10.4,7.5-11.2c4.9-0.9,3.9,3.7,7.2,4.5c6.1,1.5,13.7-0.6,18.1,3.9
			c2.8-11.4,14.4-6.9,21.8-2.6c5.1-11.3,6.1-23.5,22.2-16c7,3.2,3.5,4.7,12,5.1c5.7,0.2,19.5,0.7,24.7-1.2
			c12.2-4.4,8.8-10.9,23.5-3.6c12.4,6.2,5.4,0.7,13.7-0.9c8.3-1.6,13.7,3.3,22,2.5c2-10.8,21.9-7.4,25,1.1c0-2.6,3.4-5.6,6.5-5.6
			c-0.8-10.3,8.4-12.2,16.4-11.5c-3.3-5.3-1.9-17.3,7.7-14.5c3.3,0.9,5.1,4.9,8.1,6.9c2.5,1.7,5.3,2.9,7.7,4.8
			c3-11.2,15.3-11.4,23.2-5c2.3-2,4.6-4.6,8-3.6c-0.1-6.8,2.1-13.7,10.1-7.5c0.2-1.4,0.3-5,1.6-6.2c2.6-2.4,9.6-1.1,12.1,0.7
			c1.4,1,1.6,3.4,3.6,4.1c1.5,0.6,6.3-0.8,7.9-1.1c-3.5-3.8,1.1-9,5.5-6.9c-2.1-1.2-1.5-3-0.4-5.3c2.1-4.4,6.2-4.4,10.5-4.3
			c8.4,0.2,6.8,4.5,11.1,9.9c2.7-4,12.5-4.4,12.1,1.8c7.5-11,16.1,0,21.9,4.8c-0.2-3.4,6.5-3.4,8.4,0c1.1-5,6.6-2.8,9-0.5
			c3.9-8.5,13.6,4.8,19.1,4.6c-2.5-3.5-3.6-7.4-2.9-11.9c2.9,0.6,7.4-1.7,9.2-1.5c-0.7-3.3,1.2-5.9,1-8.6c6,2.7,13.6,5.6,21.1,3.8
			c1.3-7.9,7.7-14.8,14.9-9.2c-0.3-9.5,10.1-11.9,15.3-4.2c8.1-3.4,7.1,4,13.5,7c6.3,2.9,10.5,3.3,19.3,3.9c0.4,1.4,0,2.6,0.3,4
			c10.1,1.2,21.2,10.6,29.9,1.8c4.6-4.7,20.2-0.7,27.2-6c7.1-5.3,7.8-21.7,14.4-28.3c7.9-7.8,11.2-3.7,23-6.2
			c8.9-1.8,10.1-8.9,22.4-3.1c-2.9,9.9,0.7,20.6,0.3,30.9c-1,24.1-0.8,48.2-0.8,72.4c0,25.4,1.4,50.2,5.9,74.6
			C1417,924.3,1418,940.3,1418,957z"/>
		<path fill="#3C2415" d="M-7.5,836.6c7.7-9.4,37.6-21.8,46.8-10.7c5.7-3.5,11.9-7.8,19.1-7.2c1.1,4.5,3.3,8.7,3.3,13.4
			c10.9-10.9,21.2-1.8,24,10.3c15.6-7.4,22.2,9,35.8,5.6c19.2-4.7,12.2-31.2,37.8-11.1c8.5-17.5,16.8,5,29.2-2
			c4.5-2.5,3-17.2,13.4-20.8c8.6-2.9,20.1,1.7,24.9,8.3c3.2-6.5,10.2-14.9,18.6-14.2c10.8,0.8,7.3,7.7,13.7,12.1
			c2.7,1.9,9.6-0.5,11.3,1.7c4.7,5.8,4.9,13.3,4.3,20.6c9.2,0.7,16.4,7,21.2,13.6c6.8-6.7,24.7-14.9,32.7-8.6
			c9.9,7.9,0.7,24,20.7,17.7c20.3-6.4,24-31.5,39.1-0.2c5.6-2.2,11.8-6.9,18-7.8c15.1-2.3,10.1,4.8,20.4,11.1
			c18.9,11.5,25.8-9.7,39.3-15.3c12.1-5,23.2,1.9,34.9-8.7c7.4-6.8,14.6-28,28.4-11.4c4.1-5.5,10.7-12.8,18.1-13.2
			c11.4-0.5,14.1,13.9,22.8,16.7c1.1-3.9,1.5-7.8,1.2-11.9c1.2-1.4,10.6-6.1,14.9-7.1c0.2,2,3.2,5.9,3.4,8.4c7-2.3,18.7-6.9,21,3.1
			c12.2-12.4,22.3-7.3,24,8.5c8.2-11.1,18.4-0.9,25,6.4c5.2-24.4,29-4.3,40.4-1.4c3.7-11.5,7.1-13.3,17.9-15c33-5.2,19.5,17,22.1,34
			c7,0.3,14.9-0.1,21.2,3.8c7.5,4.6,10,18.8,22.2,14.6c5.5-1.9,4.2-9.8,10.9-12c11.3-3.5,18.2,6.5,15.7,16.4
			c9.9-2.6,31-31.5,39.4-5.8c7.1-1.8,16.5-0.7,21.9-2.9c-2.1-15.8,18.1-21.4,29-12c2-5.6,6.6-11.7,12.8-13.8
			c10.8-3.6,8.7,4.2,15.6,4.7c10,0.7,22.2-10.6,24,10.4c10.3-15.2,13.6-20.5,32.7-16.4c8.3,1.8,15.4,7.5,25.5,7.4
			c-0.4-5.3-8-17.9-4.4-22.5c5.9-7.5,23.3,2.1,25.7,8.5c4.3-8.4,13.3-8,21.2-5.8c4-5.4,9.7-4.8,14.9,0
			c-14.3-32.1,35.4-41.5,32.5-8.8c8.2-12.1,21.1-3.8,20.9,8.2c3.1-0.3,9.9,1.1,9.3,1.2c2.9-3.3,10.8-7.9,15-9.1
			c8.9-2.6,5.1,0.9,10.5,0.8c0.8,2,1.7,3.9,2.9,5.7c2.3-0.1,5.6-2.1,7.5-2.1c1.4,0,16-5,17.8-6.1c18.8-10.7-0.1-6.3,7.6-21.9
			c5.8-11.8,25.2-6.9,31.8,1c2.6-4.7,7.9-13.3,13.7-14.9c10.2-2.9,13.3,7.1,21.5,10.7c2.4-4.9,7.5-10.3,13.3-10.9
			c13-1.2,8.3,7.7,14.2,13.6c10.9,11,9.2,7.7,22.2,5.4c4.6-0.8,16.7-1.6,20-4.8c3.8-3.6-2.6-7.9,0.3-11c9.4-9.8,30.3-10.5,28.5,7.6
			c8.6-7.9,18.7-16.9,28.2-3.1c13.7-12.3,18.2-12.2,28.5-7.5v210c-5.5,0-12.5-3-18-3H467.9c-5,0.4-11.5,1.4-16.4,3H-9
			c0-38.8-4.3-75.6-7.6-114C-17.7,872.8-15.6,846.4-7.5,836.6z"/>
		<path d="M796.5,989.6c-6.6-9.1-12.9-17.2-25.2-15.2c-2.7-12.4-10-20.6-22.8-14.4c-7.3-12.7-26.2-33.9-41.7-19.9
			c-3.5-8.7-8.3-23.2-19.7-25.3c-10.6-2-6.5,5.5-15.2,8.4c-15.1,5.2-28.5-6.8-22.6,19.9c-8.2-3.9-17.1-0.2-20.6,7.6
			c0.7-7.4-5.6-15-12.3-12c-2.1,0.9-4.8,0.4-7.1,1.9c5.3-13.7,5.6-31.4-12.8-30.2c-12.5,0.8-18.6,13.1-26.4,19.3
			c-0.2-8.3-8.4-19.5-15-12.1c4.4-8.5-5.2-23.7-15.3-15.4c-0.7-8.2-5.3-25.7-15.5-14.6c6.6-11.1,0-23.7-10-30.3
			c-1.6,1.5-5.3,3-6.6,4.7c21.6-40.4-46.3-48.3-44.5-6.1c-9.5-19.3-13.1-1-19.6,4.6c-6.9,5.9-16,1.2-19.3,14.9
			c0.1-18.2-10.8-24.6-28.3-17.5c-22.2,9-7,20.9-0.3,35.5c-6.8-0.6-13.9,0.6-16.7,7.3c-6.3-5.6-14.7-1.2-18,6
			c-10.6-12.6-38.7,1.9-32.2,14.4c-6.4-8.8-20.3-16.5-29.7-6.1c1-12.3-11.1-20.3-22.1-16.4c7.2-20.5-38.8-51.6-48-28.1
			c-2.9-4.7-9-6-12.2-9.7c-1.4,3.1-7.2,9.1-7.9,12.3c-1.5-3.3-4.8-6.1-6-8.3c-6.6,7.1-8.1,20.3-14,28.5c-0.8-2.3-3.3-5.5-4.5-8
			c-3.3,2.2-12.1,2.9-15.6,5.6c-11.5-18.5-11.9,9.2-19.2,12.3c-12.4,5.3-28-10.2-36.7-16.4c-27,20.1-27.5-52.6-58-7.9
			c-8.8-5.6-20.3-0.1-24.4-11.7c-3.2,1.6-10.4,1.1-13.8,3.6C9.9,859.6-4.7,861.3-15,867v128h792C784.2,995,789.6,991.7,796.5,989.6z
			"/>
		<path d="M1425,991.1V857.6c0-4-3-6.5-3-10.5c-6.8-3.8-12.8,0.8-14.8,7.6c-9.6-12.2-19.8-21.6-34.3-9.6
			c-3.8-12.6-18.6-16.1-26.2-4.5c-5.2-7.6-21.5-13-29.8-6.8c-13.9,10.4,1.3,18.8,7.6,26.7c-14.7-5.5-26.2-1.9-31.9,13.6
			c-9.6-2.7-19.8-2.4-28.1,6c0.4,2.1,0.1,3.9-1,5.6c-3.3-12.7-14.7-22.6-27.4-14.7c-1.7-19.6-27.2-9-33.4,2.3
			c-5.1-10.2-17.7-10.4-26.4-5.4c-2.6-8-14.1-12.6-20.9-5.7c-7.4,7.6,1.6,23.1,5.2,30.6c-11.3-2.9-27.1-4.6-25.4,12.2
			c-6.9-15.5-18.8-4.8-26.7,2.1c-6-10.9-26.1-9.3-34.5-3c-5.1,3.8-4-10-11-13.4c-6.6-3.2-16.9,0.9-21.9,5.4
			c1.2-14.9-21.2-21.5-28.4-7.9c-5.8-13.8-17.8-24.8-31.8-11.3c-11.2,10.8-2.9,29.2-10,40.5c-6.3-8.7-25.4-9.5-27.3,2.7
			c-6.2-8.3-17.5-10-22.6,0.5c-5.6-6.5-22.9-6.5-26.8,2.8c-3.8,8.9,6.4,16.7,9.8,23.9c-6.4-2.6-12.5,0-14.8,7.2
			c-11.1-3.7-24.1,1.7-22.1,15.1c-11.9-14.3-33.5,7.7-27.1,23c4.9,3.3,18,4.6,24,4.5h552C1419.6,997.1,1423,993.5,1425,991.1z"/>
		<g>
			<path fill="#A97C50" d="M1386.6,247.1c-12.7-12.7-35.7-12.9-48.7-0.4c-4.1-10.6-19.6-14.6-28.3-7.2c-2.3-7.2-12.4-10.5-18.5-6
				c-2-11.2-12-20-23.2-22.3c-11.2-2.3-23,1.2-32.4,7.7c-3,2.1-6,4.6-9.5,5.5c-3,0.7-6.1,0.3-9.2,0.3c-7.7,0.2-15.3,3.9-20.2,9.9
				c-11.9-5.6-25.9-3.2-38.8-0.6c-2.1,0.4-4.2,0.8-6.3,1.2c-8.6,1.7-17.1,3.4-25.6,5.6c-3.2-5.8-10.1-8.9-16.7-9.1s-13.1,2-19.3,4.3
				c-6.7,2.5-14.3,6.2-15.4,13.3c-3.5-0.5-7.2-1-10.5,0.3c-3.3,1.3-5.8,5.2-4.3,8.4c-13.3,0.8-26.6,3.2-39.4,7
				c-2.3,0.7-4.7,1.4-7.1,1.5c-2.6,0.1-5.1-0.5-7.6-0.9c-15-2.4-31.1,4.7-39.5,17.4c25-1.6,50-3.3,75.1-4.9c2.5-0.2,5.1-0.3,7.6,0.2
				c3.1,0.7,5.8,2.4,8.8,3.4c7.9,2.5,17.4-1.2,21.4-8.5c4,1.8,8.9,1.5,12.6-0.7c10.3,3.2,22.2,0.8,30.4-6.3
				c6.6,9.8,21.4,11.2,30.2,3.3c2.6,3.5,7.6,4.4,11.8,3.3c4.2-1.1,7.8-3.8,11.2-6.4c1.8,4.2,7.4,5.6,11.8,4.4c4.4-1.1,8.2-4,12.3-6
				c3.9-2,8.1-3.2,12.5-3.7c-2.5,5.8,4.1,11.5,10.2,12.9s12.5-1.3,17.7-4.8c1.2,6.3,10.2,9.4,15,5.2c7.5,4.6,17.3,5.3,25.3,1.6
				c5.6,5.9,14.7,8.2,22.5,5.7c-2,7,4.7,14.5,12,14.5c7.3,0.1,13.7-5.8,15.9-12.8c3.6,4.2,9.9,5.9,15,3.9c5.2-1.9,8.9-7.3,8.8-12.8
				c5.5,1.5,11,3,16.4,4.5c0.4,4.1,0.8,8.3,1.2,12.4c6.3-0.4,12.7,1.3,18.1,4.6C1391.3,280.1,1397.9,258.4,1386.6,247.1z"/>
			<path fill="#A97C50" d="M964.5,255.5c-0.7,1.2,0.2,2.8,1.5,3.3s2.7,0.4,4,0.4c3.8-0.1,7.6,0.7,11.4,0.6s7.9-1.4,10-4.6
				c2.4,2.9,7.1,3.6,10.3,1.6c1.4,2.7,5.2,3,8.1,2.1c2.9-0.9,5.5-2.7,8.5-3c4.2-0.3,8.7,2.3,12.4,0.4c2.4-1.3,3.6-4.2,6.1-5.3
				c1.4-0.7,3.1-0.7,4.6-1.1s3-1.7,2.9-3.3c-0.1-0.6-0.4-1.2-0.8-1.7c-2.1-3.2-4.7-6.2-8.1-7.7s-7.9-1.4-10.6,1.2
				c-1.4,1.3-2.6,3.3-4.6,3.3c-1,0-1.9-0.6-2.8-0.9c-3.8-1.5-8.6,0.5-10.1,4.3c-4.3-4.1-10.6-5.9-16.4-4.7s-10.9,5.2-13.4,10.6
				C972.8,250.1,967.7,251.9,964.5,255.5z"/>
			<path fill="#A97C50" d="M815.1,249.2c-3.3,1.9-3.2,6.7-2.4,10.4c-3.4-0.4-7,1.9-8,5.2c2.9,0.6,5.6,2,7.7,4.1
				c-2.9,5-12.6,3.7-13.8,9.4c-1,4.6,5.5,7.4,9.9,5.8c4.4-1.6,7.7-5.3,12.1-7c3.1-1.1,6.5-1.1,9.7-2.2c3.1-1.1,6.2-3.8,5.7-7.1
				c2.8,1,5.5,1.9,8.3,2.9c0,1.6,0,3.2,0,4.8c5.8,2,12.8,0.2,16.8-4.4c0.9,4.6,8.4,2.5,12.2,5.2c1,0.7,1.7,1.7,2.6,2.5
				c4.7,4.2,13.7,0,13.4-6.3c9.3,5.4,21.1,6,30.9,1.5c1.6-0.8,3.2-3.4,1.4-3.9c-0.3,2.6,3.6,3.2,6.1,2.7c2.6-0.5,5.4-1.1,7.1-3.1
				c1.7-2,1.5-5.8-1-6.6c5,1.9,11.2-2.1,11.6-7.4c-4.7-3.4-12.2-1.7-14.9,3.4c0.3-3.7-4.5-6-8.2-5.4s-6.8,3.1-10.4,4.3
				c-4.9,1.6-10.6,0.7-14.7-2.3c3.4-1.6,2.7-7.2-0.5-9.3c-3.2-2.1-7.3-1.6-11-1.1c-5-5.7-15.2-5.5-20.1,0.3
				c-5.6-7.2-19.1-5.2-22.4,3.3c-3.5-3-10.1-0.4-10.5,4.3C826.9,255.3,820.6,246.1,815.1,249.2z"/>
			<path fill="#A97C50" d="M925.8,242.3c-0.1,1.7,1.2,3.4,2.8,4s3.5,0.4,5-0.4c0.7-0.3,1.4-0.8,2.1-0.6c1,0.2,1.5,1.3,2.4,1.8
				c1.3,0.8,3,0.2,4-1c0.9-1.2,1.2-2.7,1.3-4.2c-3.5-1.4-7-2.8-10.4-4.2c-4.6-3.2-10.9-3.6-15.9-1c-0.3,1.1,0.8,2.3,1.9,2.2
				c-3-0.3-5.9,2.2-6.2,5.1c1.7,1.6,4.4,1.9,6.7,1.4S923.8,243.6,925.8,242.3z"/>
			<path fill="#A97C50" d="M682.4,282.2c-2.9-1.5-7,1.2-6.8,4.5c-2.9-0.2-5.9,0.6-8.5,2.1c-0.9,1.4-0.1,3.3,1.3,4.3
				c1.3,0.9,3.1,1.1,4.7,1.2c5.5,0.1,11-0.8,16.1-2.8c2.4,4,8.4,5.2,12.2,2.6c2.7,3.8,9.3,3.5,11.7-0.5c5.3,3.7,13.9,0.8,15.8-5.4
				c2.2,0.5,4.7,0,6.2-1.6c1.6-1.6,1.8-4.5,0.3-6.1c-3.5,0-6.9,0-10.4,0c-0.5,0-0.9,0-1.3-0.2c-0.7-0.4-0.8-1.4-1.3-2
				c-0.5-0.5-1.2-0.7-1.8-0.9c-4.1-1-8.3-2-12.5-1.7c-4.2,0.3-8.5,2.2-10.7,5.8c-1.2-3-4.5-5.1-7.8-4.9S683.3,279.1,682.4,282.2z"/>
			<path fill="#A97C50" d="M699.7,268.5c11.4,0,22.8,1,34,3c0.1,2.6,3.3,3.8,5.7,5s4.3,4.8,2.1,6.1c2.9,1.4,6.3,1.9,9.5,1.3
				c0,1.3,0,2.6,0,4c9,0,18,0,26.9,0c1.8,0,3.7,0,5.1-1.1c1.5-1,2.1-3.4,0.7-4.6c-0.7-0.6-1.6-0.7-2.4-0.7
				c-5.3-0.5-10.7-0.5-15.6-2.6c-5.8-2.6-11.6-8.2-17.4-5.6c-1.2-1.8-2.3-3.7-3.5-5.5c-1.9-2.9-3.8-6-6.8-7.7
				c-3-1.8-7.3-1.8-9.5,0.8c-2-3.2-4.2-6.6-7.8-7.9s-8.5,0.9-8.4,4.6c-4-3.5-11.1-2.5-13.9,2.1c-3.8-0.3-8.4-1.2-9.8-4.7
				c-0.4-1-0.5-2.1-0.9-3.1c-1.6-3.7-7-4-10.6-2.2c-3.6,1.8-6.4,5.1-10.2,6.7c-5.1,2.2-11.6,0.8-15.3-3.3c3.8-0.7,7.5-1.5,11.3-2.2
				c2.7-0.5,5.5-1.1,7.9-2.4c2.2-1.2,4.1-3,6.4-4c3.2-1.2,6.8-0.6,10.2-1s7.2-2.4,7.4-5.9c0.1-2.8-2.4-5.1-5.1-5.7
				c-2.7-0.6-5.5,0-8.2,0.6c-2.7,0.6-5.4,1.2-8,1.8c-3.2,0.7-7.2,2.5-6.8,5.8c-5.8-3.8-14.2-3-19.3,1.8c-2.6-1.7-6.4-2-8.5,0.3
				c-2,2.3-0.1,7,2.9,6.4c-1,3.3,0.2,7.1,2.8,9.3c-3.1,2.1-6.3-2.3-9.6-4.2c-4.7-2.8-11.6,1.3-11.5,6.7c-3.4-2.4-8.7-1.5-11,2
				c-2.4-4.3-7.7-6.7-12.5-5.5s-8.5,5.6-8.7,10.5c-4.1-2.3-10.1,2-9.1,6.6c-6.6-0.1-13.1,0.7-19.5,2.4c-0.3,1.8,0.2,3.8,1.4,5.3
				c-3.6,0.6-6.8,3.6-7.5,7.2c3.6,2.5,8.9,2.2,12.1-0.8c2.5,2.2,5.7,4.4,8.9,3.5s4.4-6.4,1.2-7.3c4.2,2,9.8,0.3,12.2-3.7
				c2.2,0.2,2.6,3.3,4.1,5c1.7,1.9,4.6,1.8,7.1,1.6c4.1-0.4,8.1-0.7,12.2-1.1c5,6.9,17.3,5.9,21.2-1.6c2.2,1.5,4.5,3,7.1,3.1
				c2.6,0.1,5.5-1.7,5.6-4.3c3.3,3.1,8.5,3.2,12.7,1.6c4.2-1.6,7.6-4.8,10.9-7.8c1.2,2.3,5,1.9,6.6-0.1s1.7-4.9,1.7-7.5
				c3,1.9,8.1,3.2,9.2-0.2C692.3,272.1,697.5,271.7,699.7,268.5z"/>
			<path fill="#A97C50" d="M1291.3,624.4c-18.5,0-37.1,1.7-55.3,5c-0.2,4.3-5.4,6.1-9.2,8.1c-3.9,1.9-7.1,7.8-3.4,10
				c-4.8,2.3-10.3,3.1-15.5,2.2c0,2.1,0,4.3,0,6.4c-14.6,0-29.2,0-43.8,0.1c-2.9,0-6-0.1-8.4-1.7s-3.4-5.6-1.1-7.4
				c1.1-0.9,2.6-1.1,4-1.2c8.6-0.8,17.5-0.7,25.4-4.2c9.4-4.2,18.9-13.4,28.3-9.1c1.9-3,3.8-5.9,5.7-8.9c3-4.8,6.3-9.7,11.1-12.6
				c4.9-2.9,11.9-3,15.5,1.4c3.2-5.2,6.9-10.7,12.6-12.9s13.8,1.4,13.6,7.5c6.5-5.7,18.1-4,22.7,3.4c6.2-0.5,13.6-1.9,16-7.7
				c0.6-1.6,0.8-3.4,1.5-5c2.6-6.1,11.4-6.5,17.3-3.6s10.5,8.2,16.5,10.9c8.3,3.6,18.9,1.3,25-5.4c-6.1-1.2-12.2-2.4-18.3-3.6
				c-4.4-0.9-8.9-1.8-12.9-4c-3.6-2-6.6-4.9-10.4-6.4c-5.2-2-11-1-16.6-1.6c-5.5-0.6-11.8-4-12-9.5c-0.2-4.5,3.9-8.2,8.3-9.3
				c4.4-1,8.9,0,13.3,1c4.4,1,8.7,2,13.1,3c5.2,1.2,11.7,4.1,11,9.4c9.5-6.2,23.2-4.8,31.3,3c4.2-2.8,10.5-3.2,13.8,0.6
				c3.3,3.8,0.2,11.4-4.8,10.5c1.6,5.4-0.3,11.6-4.6,15.2c5,3.4,10.3-3.7,15.6-6.8c7.6-4.5,18.9,2.1,18.7,10.9
				c5.5-4,14.1-2.4,17.8,3.2c3.9-7,12.6-10.8,20.3-9c7.8,1.8,13.9,9.2,14.2,17.1c6.7-3.8,16.4,3.3,14.8,10.8
				c10.7-0.2,21.4,1.1,31.7,3.9c0.5,3-0.4,6.2-2.3,8.6c5.9,0.9,11,5.8,12.2,11.7c-5.8,4.1-14.5,3.5-19.7-1.3
				c-4.1,3.6-9.3,7.1-14.5,5.8c-5.3-1.3-7.2-10.4-2-11.8c-6.9,3.2-15.9,0.4-19.8-6.1c-3.6,0.4-4.3,5.3-6.7,8.1
				c-2.7,3.1-7.5,3-11.6,2.6c-6.6-0.6-13.2-1.2-19.9-1.7c-8.1,11.2-28.2,9.7-34.5-2.6c-3.5,2.4-7.3,4.8-11.6,5c-4.3,0.2-9-2.7-9.1-7
				c-5.4,5-13.8,5.2-20.6,2.5s-12.3-7.8-17.7-12.8c-2,3.8-8.1,3.1-10.8-0.2s-2.8-8-2.8-12.3c-4.9,3.1-13.2,5.2-15-0.3
				C1303.4,630.2,1295,629.5,1291.3,624.4z"/>
			<path fill="#A97C50" d="M1102.8,97c-11.4,0-22.8,1-34,3c-0.1,2.6-3.3,3.8-5.7,5c-2.4,1.2-4.3,4.8-2.1,6.1
				c-2.9,1.4-6.3,1.9-9.5,1.3c0,1.3,0,2.6,0,4c-9,0-18,0-26.9,0c-1.8,0-3.7,0-5.1-1.1c-1.5-1-2.1-3.4-0.7-4.6
				c0.7-0.6,1.6-0.7,2.4-0.7c5.3-0.5,10.7-0.5,15.6-2.6c5.8-2.6,11.6-8.2,17.4-5.6c1.2-1.8,2.3-3.7,3.5-5.5c1.9-2.9,3.8-6,6.8-7.7
				s7.3-1.8,9.5,0.8c2-3.2,4.2-6.6,7.8-7.9c3.5-1.3,8.5,0.9,8.4,4.6c4-3.5,11.1-2.5,13.9,2.1c3.8-0.3,8.4-1.2,9.8-4.7
				c0.4-1,0.5-2.1,0.9-3.1c1.6-3.7,7-4,10.6-2.2c3.6,1.8,6.4,5.1,10.2,6.7c5.1,2.2,11.6,0.8,15.3-3.3c-3.8-0.7-7.5-1.5-11.3-2.2
				c-2.7-0.5-5.5-1.1-7.9-2.4c-2.2-1.2-4.1-3-6.4-4c-3.2-1.2-6.8-0.6-10.2-1c-3.4-0.4-7.2-2.4-7.4-5.9c-0.1-2.8,2.4-5.1,5.1-5.7
				s5.5,0,8.2,0.6c2.7,0.6,5.4,1.2,8,1.8c3.2,0.7,7.2,2.5,6.8,5.8c5.8-3.8,14.2-3,19.3,1.8c2.6-1.7,6.4-2,8.5,0.3
				c2,2.3,0.1,7-2.9,6.4c1,3.3-0.2,7.1-2.8,9.3c3.1,2.1,6.3-2.3,9.6-4.2c4.7-2.8,11.6,1.3,11.5,6.7c3.4-2.4,8.7-1.5,11,2
				c2.4-4.3,7.7-6.7,12.5-5.5c4.8,1.1,8.5,5.6,8.7,10.5c4.1-2.3,10.1,2,9.1,6.6c6.6-0.1,13.1,0.7,19.5,2.4c0.3,1.8-0.2,3.8-1.4,5.3
				c3.6,0.6,6.8,3.6,7.5,7.2c-3.6,2.5-8.9,2.2-12.1-0.8c-2.5,2.2-5.7,4.4-8.9,3.5c-3.2-0.8-4.4-6.4-1.2-7.3c-4.2,2-9.8,0.3-12.2-3.7
				c-2.2,0.2-2.6,3.3-4.1,5c-1.7,1.9-4.6,1.8-7.1,1.6c-4.1-0.4-8.1-0.7-12.2-1.1c-5,6.9-17.3,5.9-21.2-1.6c-2.2,1.5-4.5,3-7.1,3.1
				s-5.5-1.7-5.6-4.3c-3.3,3.1-8.5,3.2-12.7,1.6c-4.2-1.6-7.6-4.8-10.9-7.8c-1.2,2.3-5,1.9-6.6-0.1c-1.6-2.1-1.7-4.9-1.7-7.5
				c-3,1.9-8.1,3.2-9.2-0.2C1110.2,100.5,1105,100.1,1102.8,97z"/>
			<path fill="#A97C50" d="M728.9,244.9c0.8,0.3,1.3,1.2,1.9,1.8c1.5,1.7,4,2.4,6.2,1.8c0,3,3.9,4.3,6.9,4.1c4.2-0.2,8.3-1.4,12-3.5
				c1.3-0.7,2.6-1.8,2.5-3.3c-0.1-0.9-0.8-1.7-1.5-2.3c-5.1-4.6-12.4-6.7-19.2-5.4c-0.5-4.4-5.1-7.9-9.5-7.2c-1.5,0.2-3,0.8-4.5,1
				c-1.7,0.2-3.4-0.2-5.1-0.3c-7.3-0.3-14.4,5.7-15.2,12.9c4.2,1.5,9.4,0,12-3.7c1.9,3.6,6.5,5.6,10.4,4.4
				C726.8,245,727.9,244.6,728.9,244.9z"/>
			<path fill="#A97C50" d="M490.6,321.2c14-0.3,28-0.6,42-0.9c1.2,0,2.8-0.4,2.9-1.6c0-0.5-0.2-0.9-0.5-1.3
				c-3.5-4.8-11.7-1.8-16.7-5c-1.3-0.8-2.3-2.1-3.7-2.8c-3.9-2-9.4,1-12.9-1.6c-1.1-0.8-1.8-2.1-2.9-3.1c-2.9-2.7-7.6-2.2-11.5-1.3
				c-1.5,0.4-3,0.8-4.6,0.5c-4.1-0.8-5.4-5.8-6-10c-3.6-1.1-7.8-0.1-10.5,2.5c0.5-3.7-0.5-7.6-2.8-10.6c-7.5-0.2-14.9,0.6-22,3
				c-0.2,3.1-1.4,6.1-3.5,8.4c-7.9-8.6-23.1-8.9-31.3-0.6c4.5-3.7,0.4-11.7-5.2-13c-5.7-1.3-11.4,1.5-16.8,3.5c-5.5,2-12.3,3-16.5-1
				c-1.5,1.8-3,3.6-4.5,5.4c-5-4.5-13-5.3-18.8-1.7c1.6-4.6-0.8-10.2-5.2-12.2c-4.4-2-10.2-0.1-12.6,4.2c0.7-5.5-4.7-10.4-10.3-11
				c-5.6-0.6-11,1.9-15.8,4.7c-2.7,1.5-5.5,3.2-8.6,3.4s-6.5-2.1-6.4-5.2c-2.3,2.1-4.6,4.2-6.9,6.3c-1-3.7-3.2-7.6-6.9-8.7
				s-8.5,2.1-7.6,5.8c2.1-5-3.1-10.6-8.5-11c-5.4-0.4-10.3,2.8-14.5,6.3c-4.1,3.5-8,7.5-13.1,9.4c0.6-5.4-4.3-10.2-9.7-11.3
				c-5.3-1.1-10.8,0.4-16,1.9c-9.1-9.7-28.1-5.8-32.7,6.7c-1.2-2.4-2.4-4.8-3.7-7.2c-4.2-0.7-8.7,0.2-12.3,2.4
				c-4.5-7.6-16.5-9-22.6-2.7c3.6-2.2,2.4-8.2-1.2-10.4s-8.2-1.5-12.3-0.6c-5,1.1-10,2.5-14.9,4.2c-2.3-6.9-16-0.7-19.1-7.3
				c-0.8-1.7-0.6-3.9-2.1-5.1c-1.4-1.1-3.3-0.5-4.9,0.2c-4.6,2-8.8,5-12.2,8.7c-4.3-7.4-15.2-9.9-22.3-5.1c3.5-5.7,1.5-14-4.1-17.6
				c-5.7-3.5-14-1.5-17.6,4.2c-0.6-5.4-8-6.4-13.4-5.9c-4.4,0.4-9.1,0.9-12.7,3.6c-4.6,3.4-6.3,10-3.9,15.2
				c-4.4,0.2-8.9,0.4-13.3,0.6c0.2,13.6,2.5,28.8,2.7,42.4c9.3-0.6,18.6-0.7,27.9-0.8c1.6,0,3.3,0,4.9-0.1c9.5-0.1,19-0.3,28.5,0.3
				c0.4,2.5,0.8,5,1.2,7.4c8.1,3.7,17.9,3.4,25.8-0.7c7.1-3.7,14.9-10.4,21.8-6.3c2.9,1.7,4.7,5.1,7.9,5.9c2.7,0.7,5.4-0.6,7.9-1.6
				c8.3-3.5,18.1-5,26.1-0.9c5.5,2.9,9.4,8.1,14.1,12.1c4.7,4,11.5,7,17.1,4.3c2.1-1,4-2.9,6.4-3.1c2.4-0.2,4.6,1.3,6.6,2.6
				c10.9,6.6,25.7,6,36.1-1.3c5.1,8,18.3,12.6,27.7,11c9.4-1.6,17.7-6.8,25.6-12.1c1.9,3.8,6.1,6.3,10.3,6.2c3,0,5.9-1.3,8.7-2.5
				c5.9-2.6,11.9-5.1,17.8-7.7c6.3,3.2,12.6,6.5,18.9,9.7c3.6,1.9,7.7,3.7,11.5,2.4c3.8-1.3,5.3-7.8,1.5-9.2
				c5.2,2.7,11.6,0.1,17.4,0.6c5.6,0.5,10.5,3.8,15.9,5.3c9.3,2.7,20-0.4,26.5-7.5c7.3,8.3,20.5,12,30.5,7.1c0.8-0.4,1.7-0.9,2.6-1
				c1.6-0.2,3.1,0.5,4.5,1.1c3.9,1.6,8.2,2.3,12.3,1.3c6-1.6,12.2-7.1,17.7-4c1.3,0.7,2.3,1.9,3.7,2.3c3.5,1.2,7-2.3,10.7-2
				c2.4,0.2,4.3,2,6.6,2.9C485.1,321.8,490.1,323.5,490.6,321.2z"/>
			<path fill="#A97C50" d="M1062.7,158.9c-9.6-1.1-19.2-2.2-28.8-3.4c-0.8-0.1-1.9-0.5-1.9-1.3c0-0.3,0.2-0.6,0.4-0.8
				c2.7-3.1,8.1-0.5,11.8-2.3c1-0.5,1.7-1.3,2.7-1.7c2.8-1.1,6.3,1.3,9-0.3c0.8-0.5,1.4-1.3,2.2-1.9c2.2-1.7,5.3-1,8-0.1
				c1,0.3,2,0.7,3.1,0.6c2.8-0.3,4.1-3.7,4.7-6.4c2.5-0.5,5.3,0.4,7,2.4c-0.1-2.6,0.8-5.2,2.6-7.1c5.2,0.3,10.2,1.4,14.9,3.5
				c-0.1,2.1,0.6,4.3,1.8,6c6-5.4,16.4-4.6,21.5,1.6c-2.9-2.8,0.5-8.1,4.4-8.6c4-0.5,7.7,1.8,11.3,3.5c3.6,1.7,8.2,2.9,11.4,0.4
				c0.9,1.3,1.8,2.7,2.8,4c3.7-2.8,9.3-2.8,13,0.1c-0.8-3.2,1.2-6.9,4.3-8c3.2-1.1,7,0.6,8.3,3.7c-0.1-3.8,3.9-6.8,7.8-6.9
				c3.8-0.1,7.4,2,10.5,4.2c1.7,1.2,3.5,2.6,5.6,2.9c2.1,0.3,4.6-1,4.7-3.2c1.5,1.6,2.9,3.2,4.4,4.8c0.9-2.5,2.7-5,5.3-5.5
				c2.6-0.6,5.7,2,4.8,4.5c-1.1-3.6,2.8-7.1,6.5-7c3.7,0.1,6.9,2.6,9.5,5.3s5,5.7,8.4,7.3c-0.1-3.7,3.6-6.7,7.4-7.1
				c3.7-0.4,7.4,1,10.9,2.3c6.9-6.1,19.7-2.1,22,6.8c1-1.6,2-3.1,3-4.7c2.9-0.2,5.9,0.7,8.3,2.5c3.6-4.9,11.9-5.1,15.7-0.4
				c-2.3-1.7-1.1-5.8,1.5-7.1c2.6-1.2,5.7-0.5,8.5,0.4c3.4,1.1,6.7,2.4,9.9,3.9c2-4.6,11,0.6,13.6-3.7c0.7-1.1,0.7-2.7,1.8-3.3
				c1-0.6,2.3-0.1,3.4,0.4c3,1.7,5.7,4,7.8,6.7c3.4-4.8,11.1-5.8,15.6-2c-2-4.1-0.1-9.7,4-11.8c4.1-2,9.7-0.1,11.8,4
				c0.7-3.7,5.9-3.9,9.6-3.2c3,0.6,6.2,1.2,8.5,3.3c2.9,2.6,3.7,7.3,1.7,10.7c3,0.4,6.1,0.8,9.1,1.3c-1,9.3-3.6,19.6-4.6,28.9
				c-6.3-1-12.7-1.7-19.1-2.4c-1.1-0.1-2.2-0.2-3.3-0.4c-6.5-0.7-13-1.4-19.5-1.6c-0.4,1.7-0.9,3.3-1.3,5c-5.8,2-12.5,1.2-17.6-2.1
				c-4.6-3-9.6-8.1-14.5-5.7c-2.1,1-3.6,3.2-5.8,3.5c-1.9,0.3-3.7-0.7-5.3-1.6c-5.5-2.9-12.1-4.6-17.8-2.3c-4,1.6-7,4.9-10.5,7.4
				s-8.3,4-12,1.8c-1.4-0.9-2.6-2.2-4.2-2.5c-1.6-0.3-3.2,0.6-4.7,1.3c-7.9,3.8-18,2.5-24.7-3.2c-4.1,5.2-13.4,7.4-19.7,5.7
				c-6.3-1.7-11.7-5.8-16.8-10c-1.6,2.4-4.6,3.9-7.5,3.6c-2.1-0.2-4-1.2-5.8-2.3c-3.9-2.1-7.8-4.3-11.7-6.4c-4.5,1.8-9,3.6-13.6,5.4
				c-2.6,1-5.5,2.1-8.1,0.9c-2.5-1.2-3.1-5.7-0.4-6.4c-3.8,1.5-7.9-0.7-12-0.8c-3.9,0-7.5,1.9-11.3,2.6c-6.6,1.2-13.7-1.6-17.7-6.9
				c-5.6,5.2-14.8,6.9-21.4,2.9c-0.6-0.3-1.1-0.7-1.7-0.9c-1.1-0.3-2.1,0.2-3.2,0.5c-2.8,0.9-5.8,1.1-8.5,0.1
				c-4-1.5-7.9-5.6-11.8-3.9c-0.9,0.4-1.7,1.1-2.7,1.4c-2.5,0.6-4.7-2-7.2-2c-1.7,0-3.1,1.1-4.7,1.6S1062.9,160.5,1062.7,158.9z"/>
			<path fill="#A97C50" d="M1054.7,567.8c-9.6-1.1-19.2-2.2-28.8-3.4c-0.8-0.1-1.9-0.5-1.9-1.3c0-0.3,0.2-0.6,0.4-0.8
				c2.7-3.1,8.1-0.5,11.8-2.3c1-0.5,1.7-1.3,2.7-1.7c2.8-1.1,6.3,1.3,9-0.3c0.8-0.5,1.4-1.3,2.2-1.9c2.2-1.7,5.3-1,8-0.1
				c1,0.3,2,0.7,3.1,0.6c2.8-0.3,4.1-3.7,4.7-6.4c2.5-0.5,5.3,0.4,7,2.4c-0.1-2.6,0.8-5.2,2.6-7.1c5.2,0.3,10.2,1.4,14.9,3.5
				c-0.1,2.1,0.6,4.3,1.8,6c6-5.4,16.4-4.6,21.5,1.6c-2.9-2.8,0.5-8.1,4.4-8.6c4-0.5,7.7,1.8,11.3,3.5c3.6,1.7,8.2,2.9,11.4,0.4
				c0.9,1.3,1.8,2.7,2.8,4c3.7-2.8,9.3-2.8,13,0.1c-0.8-3.2,1.2-6.9,4.3-8c3.2-1.1,7,0.6,8.3,3.7c-0.1-3.8,3.9-6.8,7.8-6.9
				c3.8-0.1,7.4,2,10.5,4.2c1.7,1.2,3.5,2.6,5.6,2.9c2.1,0.3,4.6-1,4.7-3.2c1.5,1.6,2.9,3.2,4.4,4.8c0.9-2.5,2.7-5,5.3-5.5
				c2.6-0.6,5.7,2,4.8,4.5c-1.1-3.6,2.8-7.1,6.5-7c3.7,0.1,6.9,2.6,9.5,5.3c2.6,2.7,5,5.7,8.4,7.3c-0.1-3.7,3.6-6.7,7.4-7.1
				c3.7-0.4,7.4,1,10.9,2.3c6.9-6.1,19.7-2.1,22,6.8c1-1.6,2-3.1,3-4.7c2.9-0.2,5.9,0.7,8.3,2.5c3.6-4.9,11.9-5.1,15.7-0.4
				c-2.3-1.7-1.1-5.8,1.5-7.1s5.7-0.5,8.5,0.4c3.4,1.1,6.7,2.4,9.9,3.9c2-4.6,11,0.6,13.6-3.7c0.7-1.1,0.7-2.7,1.8-3.3
				c1-0.6,2.3-0.1,3.4,0.4c3,1.7,5.7,4,7.8,6.7c3.4-4.8,11.1-5.8,15.6-2c-2-4.1-0.1-9.7,4-11.8c4.1-2,9.7-0.1,11.8,4
				c0.7-3.7,5.9-3.9,9.6-3.2c3,0.6,6.2,1.2,8.5,3.3c2.9,2.6,3.7,7.3,1.7,10.7c3,0.4,6.1,0.8,9.1,1.3c-1,9.3-3.6,19.6-4.6,28.9
				c-6.3-1-12.7-1.7-19.1-2.4c-1.1-0.1-2.2-0.2-3.3-0.4c-6.5-0.7-13-1.4-19.5-1.6c-0.4,1.7-0.9,3.3-1.3,5c-5.8,2-12.5,1.2-17.6-2.1
				c-4.6-3-9.6-8.1-14.5-5.7c-2.1,1-3.6,3.2-5.8,3.5c-1.9,0.3-3.7-0.7-5.3-1.6c-5.5-2.9-12.1-4.6-17.8-2.3c-4,1.6-7,4.9-10.5,7.4
				s-8.3,4-12,1.8c-1.4-0.9-2.6-2.2-4.2-2.5c-1.6-0.3-3.2,0.6-4.7,1.3c-7.9,3.8-18,2.5-24.7-3.2c-4.1,5.2-13.4,7.4-19.7,5.7
				s-11.7-5.8-16.8-10c-1.6,2.4-4.6,3.9-7.5,3.6c-2.1-0.2-4-1.2-5.8-2.3c-3.9-2.1-7.8-4.3-11.7-6.4c-4.5,1.8-9,3.6-13.6,5.4
				c-2.6,1-5.5,2.1-8.1,0.9c-2.5-1.2-3.1-5.7-0.4-6.4c-3.8,1.5-7.9-0.7-12-0.8c-3.9,0-7.5,1.9-11.3,2.6c-6.6,1.2-13.7-1.6-17.7-6.9
				c-5.6,5.2-14.8,6.9-21.4,2.9c-0.6-0.3-1.1-0.7-1.7-0.9c-1.1-0.3-2.1,0.2-3.2,0.5c-2.8,0.9-5.8,1.1-8.5,0.1
				c-4-1.5-7.9-5.6-11.8-3.9c-0.9,0.4-1.7,1.1-2.7,1.4c-2.5,0.6-4.7-2-7.2-2c-1.7,0-3.1,1.1-4.7,1.6
				C1058.4,568.6,1054.9,569.4,1054.7,567.8z"/>
			<path fill="#A97C50" d="M31,339.8c7.6,1,15.3,2,22.9,3C42.7,344.5,30,345.9,21,339c-2.2-1.7-4.4-4-7.1-3.8
				c-2.1,0.1-3.9,1.5-5.8,2.4c-9.5,4.4-21.2-5.5-30.8-1.1c-0.4,7.4,0,16.5,6.6,20c2.6,1.3,5.6,1.4,8.5,1.5c7.8,0.2,16.7,0,21.8-5.9
				c2.2,4.6,8.9,4.1,14,3.4c8-1.1,16.1-0.9,24,0.8c5.3,3.6,11.2,6.4,17.2,8.5c6.6,2.2,15.3,2.8,19.2-3c6.2,2.3,12.9,2.7,19.6,3.1
				c3.7,0.2,7.4,0.4,11,0.6c8.2,0.4,16.3,0.9,24.5,1.3c-0.2,1.4-0.4,2.8-0.6,4.2c-15.2-1.1-30.5-0.3-45.5,2.4
				c-2.1,0.4-4.8,1.5-4.5,3.6c15.9-0.8,31.7-1.5,47.6-2.2c-2.8,1.3-5.6,2.6-8.5,3.9c29.4,3.2,59.2,3.3,88.7,0.2
				c2.1-0.2,4.7-0.9,5.1-3c-16.4,0-32.7,0-49.1-0.1c-0.4-2,2.1-3.2,4.1-3.7c20.8-4.6,43-1.4,63.1-8.4c-17.1,0.9-34.4,0.5-51.4-1.3
				c-3.6-0.4-7.2-0.8-10.8-1.3c-3.8-0.5-7.6-0.9-11.3-1.4c-8.3-1-16.9-2.1-24.3-5.9c11.2-1.4,22.4-2.8,33.6-4.1
				c-13.9-1.2-27.9-2.4-41.8-3.6c-2.3-6-10-7.4-16.4-7.2c-7.7,0.3-15.3,1.6-22.6,4.1c-0.7-2.7-4-4-6.7-3.5s-5,2.3-7.2,4
				c-0.8-1.1-1.7-2.3-2.5-3.4c2.3,1.3,5.7-1.1,5.3-3.7c-0.5-3.3-4.9-4.2-8.1-3.3c-3.2,0.9-6.2,2.9-9.5,2.5c-2.7-0.3-5.2-2.3-7.9-2.2
				c-2,0.1-3.7,1.2-5.6,1.8c-4.6,1.4-9.5-0.3-14.2-0.8S32.2,335.2,31,339.8z"/>
			<path fill="#A97C50" d="M1234,315.7c7.6,1,15.3,2,22.9,3c-11.2,1.7-23.9,3.1-32.9-3.9c-2.2-1.7-4.4-4-7.1-3.8
				c-2.1,0.1-3.9,1.5-5.8,2.4c-9.5,4.4-21.2-5.5-30.8-1.1c-0.4,7.4,0,16.5,6.6,20c2.6,1.3,5.6,1.4,8.5,1.5c7.8,0.2,16.7,0,21.8-5.9
				c2.2,4.6,8.9,4.1,14,3.4c8-1.1,16.1-0.9,24,0.8c5.3,3.6,11.2,6.4,17.2,8.5c6.6,2.2,15.3,2.8,19.2-3c6.2,2.3,12.9,2.7,19.6,3.1
				c3.7,0.2,7.4,0.4,11,0.6c8.2,0.4,16.3,0.9,24.5,1.3c-0.2,1.4-0.4,2.8-0.6,4.2c-15.2-1.1-30.5-0.3-45.5,2.4
				c-2.1,0.4-4.8,1.5-4.5,3.6c15.9-0.8,31.7-1.5,47.6-2.2c-2.8,1.3-5.6,2.6-8.5,3.9c29.4,3.2,59.2,3.3,88.7,0.2
				c2.1-0.2,4.7-0.9,5.1-3c-16.4,0-32.7,0-49.1-0.1c-0.4-2,2.1-3.2,4.1-3.7c20.8-4.6,43-1.4,63.1-8.4c-17.1,0.9-34.4,0.5-51.4-1.3
				c-3.6-0.4-7.2-0.8-10.8-1.3c-3.8-0.5-7.6-0.9-11.3-1.4c-8.3-1-16.9-2.1-24.3-5.9c11.2-1.4,22.4-2.8,33.6-4.1
				c-13.9-1.2-27.9-2.4-41.8-3.6c-2.3-6-10-7.4-16.4-7.2c-7.7,0.3-15.3,1.6-22.6,4.1c-0.7-2.7-4-4-6.7-3.5c-2.7,0.5-5,2.3-7.2,4
				c-0.8-1.1-1.7-2.3-2.5-3.4c2.3,1.3,5.7-1.1,5.3-3.7c-0.5-3.3-4.9-4.2-8.1-3.3c-3.2,0.9-6.2,2.9-9.5,2.5c-2.7-0.3-5.2-2.3-7.9-2.2
				c-2,0.1-3.7,1.2-5.6,1.8c-4.6,1.4-9.5-0.3-14.2-0.8S1235.1,311.1,1234,315.7z"/>
			<path fill="#A97C50" d="M221.6,152.1c1.8,1.6,3.6,3.1,5.4,4.7c-1.3,1.5-2.2,3.3-2.6,5.2c2,0.4,4,0.9,6,1.3
				c-0.2,4-3.7,7.5-7.7,7.9c11.7,7.9,27.2,6.8,41.3,5.3c-0.7,1.9-1.4,3.7-2.1,5.6c5.8,3.2,12.6,4.6,19.2,3.9
				c-0.5-2.4-0.9-4.9-1.4-7.3c3.2,0.5,6.6,0.1,9.6-1.2c-1.9-2,1.9-4.4,4.7-4.5c18-0.8,36-1.6,54-2.3c-9.3,2.2-18.5,4.5-27.8,6.7
				c9.1,8,23.3,3.6,34.9,6.8c3.3,0.9,6.8,2.5,10.1,1.3c2.5-0.9,4.3-3.3,6.9-4.3c4.7-1.7,9.9,2.1,14.7,0.8c2.7-0.7,5-3.1,7.8-3.3
				c2.7-0.2,5.1,1.6,7.6,2.7c9,3.6,18.5-3.2,28-5.1c8.6-1.7,18,0.6,25.8-3.5c0.1-2.7-3.4-3.6-6.1-3.7c-11.3-0.4-22.6-0.7-34-1.1
				c-1.8-0.1-3.7-0.1-5.5-0.7c-1.6-0.5-3-1.5-4.5-2.3c-14.2-7.2-33.3,4.3-46.6-4.6c10-1.1,19.9-2.2,29.9-3.3
				c-12.7-14.3-34.5-19.7-52.5-12.9c-0.9-6.3-9.8-9.8-14.8-5.7c-1.4,1.2-2.6,2.9-4.4,3.4c-1.3,0.4-2.8,0.1-4.2,0
				c-4-0.4-8.2,0.8-11.5,3.2c-0.1-1.9-0.2-3.8-0.3-5.7c-6.9-0.3-13.7-0.7-20.6-1c1.3-1.8,2.7-3.7,4-5.5c-9.2-0.2-18.4-1-27.5-2.4
				c16.4-3.3,33.3-4.2,50-2.7c1.7-2.8-2.8-5.2-6-5.6c-5.4-0.5-10.8-1.1-16.2-1.6c-5.2-0.5-11.3-0.8-15,2.9c-3-8.4-14.9-12.1-22-6.7
				c-5.7-9.2-17.5-13.4-28.3-12.2c-10.8,1.3-20.5,7.2-28.7,14.3c-4-5.9-15.5-7.3-22.6-6.4c-1.3,3.9-4.2,8.8-8.2,7.5
				c-1.4-0.4-2.5-1.6-3.8-1.9c-2.5-0.6-4.7,1.4-7.1,2.4c-4.8,2.2-10.3,0.5-15.6-0.3c-7.7-1.2-15.6-0.2-23.4,0.8
				c-6.2,0.8-12.4,1.6-18.6,2.4c6.1,6.1,16.2,3.4,24.8,2.8c8.7-0.6,17.3,1.5,25.8,3.5c8.5,2.1,17.1,4.1,25.6,6.2
				c-5.2,2.2-10,5.4-14.2,9.3c5.8,2.9,12.7,3.6,18.9,1.8c-0.3,3.2,4.3,4.4,7.4,3.6c3.1-0.8,6.8-2.3,9.3-0.3c1,0.8,1.6,2.1,2.5,3
				c3.1,3.4,8.6,2.4,12.9,0.8s8.9-3.9,13.2-2.2L221.6,152.1z"/>
			<path fill="#A97C50" d="M30.2,571.4c1.8,1.6,3.6,3.1,5.4,4.7c-1.3,1.5-2.2,3.3-2.6,5.2c2,0.4,4,0.9,6,1.3c-0.2,4-3.7,7.5-7.7,7.9
				c11.7,7.9,27.2,6.8,41.3,5.3c-0.7,1.9-1.4,3.7-2.1,5.6c5.8,3.2,12.6,4.6,19.2,3.9c-0.5-2.4-0.9-4.9-1.4-7.3
				c3.2,0.5,6.6,0.1,9.6-1.2c-1.9-2,1.9-4.4,4.7-4.5c18-0.8,36-1.6,54-2.3c-9.3,2.2-18.5,4.5-27.8,6.7c9.1,8,23.3,3.6,34.9,6.8
				c3.3,0.9,6.8,2.5,10.1,1.3c2.5-0.9,4.3-3.3,6.9-4.3c4.7-1.7,9.9,2.1,14.7,0.8c2.7-0.7,5-3.1,7.8-3.3c2.7-0.2,5.1,1.6,7.6,2.7
				c9,3.6,18.5-3.2,28-5.1c8.6-1.7,18,0.6,25.8-3.5c0.1-2.7-3.4-3.6-6.1-3.7c-11.3-0.4-22.6-0.7-34-1.1c-1.8-0.1-3.7-0.1-5.5-0.7
				c-1.6-0.5-3-1.5-4.5-2.3c-14.2-7.2-33.3,4.3-46.6-4.6c10-1.1,19.9-2.2,29.9-3.3c-12.7-14.3-34.5-19.7-52.5-12.9
				c-0.9-6.3-9.8-9.8-14.8-5.7c-1.4,1.2-2.6,2.9-4.4,3.4c-1.3,0.4-2.8,0.1-4.2,0c-4-0.4-8.2,0.8-11.5,3.2c-0.1-1.9-0.2-3.8-0.3-5.7
				c-6.9-0.3-13.7-0.7-20.6-1c1.3-1.8,2.7-3.7,4-5.5c-9.2-0.2-18.4-1-27.5-2.4c16.4-3.3,33.3-4.2,50-2.7c1.7-2.8-2.8-5.2-6-5.6
				c-5.4-0.5-10.8-1.1-16.2-1.6c-5.2-0.5-11.3-0.8-15,2.9c-3-8.4-14.9-12.1-22-6.7c-5.7-9.2-17.5-13.4-28.3-12.2
				s-20.5,7.2-28.7,14.3c-4-5.9-15.5-7.3-22.6-6.4c-1.3,3.9-4.2,8.8-8.2,7.5c-1.4-0.4-2.5-1.6-3.8-1.9c-2.5-0.6-4.7,1.4-7.1,2.4
				c-4.8,2.2-10.3,0.5-15.6-0.3c-7.7-1.2-15.6-0.2-23.4,0.8c-6.2,0.8-12.4,1.6-18.6,2.4c6.1,6.1,16.2,3.4,24.8,2.8
				c8.7-0.6,17.3,1.5,25.8,3.5c8.5,2.1,17.1,4.1,25.6,6.2c-5.2,2.2-10,5.4-14.2,9.3c5.8,2.9,12.7,3.6,18.9,1.8
				c-0.3,3.2,4.3,4.4,7.4,3.6s6.8-2.3,9.3-0.3c1,0.8,1.6,2.1,2.5,3c3.1,3.4,8.6,2.4,12.9,0.8s8.9-3.9,13.2-2.2L30.2,571.4z"/>
			<path fill="#A97C50" d="M1033.6,212.5c1.8,1.6,3.6,3.1,5.4,4.7c-1.3,1.5-2.2,3.3-2.6,5.2c2,0.4,4,0.9,6,1.3
				c-0.2,4-3.7,7.5-7.7,7.9c11.7,7.9,27.2,6.8,41.3,5.3c-0.7,1.9-1.4,3.7-2.1,5.6c5.8,3.2,12.6,4.6,19.2,3.9
				c-0.5-2.4-0.9-4.9-1.4-7.3c3.2,0.5,6.6,0.1,9.6-1.2c-1.9-2,1.9-4.4,4.7-4.5c18-0.8,36-1.6,54-2.3c-9.3,2.2-18.5,4.5-27.8,6.7
				c9.1,8,23.3,3.6,34.9,6.8c3.3,0.9,6.8,2.5,10.1,1.3c2.5-0.9,4.3-3.3,6.9-4.3c4.7-1.7,9.9,2.1,14.7,0.8c2.7-0.7,5-3.1,7.8-3.3
				c2.7-0.2,5.1,1.6,7.6,2.7c9,3.6,18.5-3.2,28-5.1c8.6-1.7,18,0.6,25.8-3.5c0.1-2.7-3.4-3.6-6.1-3.7c-11.3-0.4-22.6-0.7-34-1.1
				c-1.8-0.1-3.7-0.1-5.5-0.7c-1.6-0.5-3-1.5-4.5-2.3c-14.2-7.2-33.3,4.3-46.6-4.6c10-1.1,19.9-2.2,29.9-3.3
				c-12.7-14.3-34.5-19.7-52.5-12.9c-0.9-6.3-9.8-9.8-14.8-5.7c-1.4,1.2-2.6,2.9-4.4,3.4c-1.3,0.4-2.8,0.1-4.2,0
				c-4-0.4-8.2,0.8-11.5,3.2c-0.1-1.9-0.2-3.8-0.3-5.7c-6.9-0.3-13.7-0.7-20.6-1c1.3-1.8,2.7-3.7,4-5.5c-9.2-0.2-18.4-1-27.5-2.4
				c16.4-3.3,33.3-4.2,50-2.7c1.7-2.8-2.8-5.2-6-5.6c-5.4-0.5-10.8-1.1-16.2-1.6c-5.2-0.5-11.3-0.8-15,2.9c-3-8.4-14.9-12.1-22-6.7
				c-5.7-9.2-17.5-13.4-28.3-12.2c-10.8,1.3-20.5,7.2-28.7,14.3c-4-5.9-15.5-7.3-22.6-6.4c-1.3,3.9-4.2,8.8-8.2,7.5
				c-1.4-0.4-2.5-1.6-3.8-1.9c-2.5-0.6-4.7,1.4-7.1,2.4c-4.8,2.2-10.3,0.5-15.6-0.3c-7.7-1.2-15.6-0.2-23.4,0.8
				c-6.2,0.8-12.4,1.6-18.6,2.4c6.1,6.1,16.2,3.4,24.8,2.8c8.7-0.6,17.3,1.5,25.8,3.5c8.5,2.1,17.1,4.1,25.6,6.2
				c-5.2,2.2-10,5.4-14.2,9.3c5.8,2.9,12.7,3.6,18.9,1.8c-0.3,3.2,4.3,4.4,7.4,3.6c3.1-0.8,6.8-2.3,9.3-0.3c1,0.8,1.6,2.1,2.5,3
				c3.1,3.4,8.6,2.4,12.9,0.8s8.9-3.9,13.2-2.2L1033.6,212.5z"/>
			<path fill="#A97C50" d="M459,197.6c12.5-4.5,26,3.4,39.3,3.6c-0.1,1.4,0.1,2.8,0.7,4.1c-12,1.1-24,1.6-36.1,1.4
				c0.3,2.5,0.5,4.9,0.8,7.4c-2.3,0.2-4.6,0-6.8-0.7c0,1.5-0.1,3-0.1,4.5c-2.2,2-5.7,1.9-8.6,1c-2.9-0.9-5.5-2.5-8.5-3
				c-3.4-0.6-6.8,0.2-10.2,0.8c-3.4,0.6-7,0.8-10.1-0.7s-5.1-5.5-3.4-8.5c-6.4-0.2-12.9-1.2-19.1-3c0.1-1.3,0.2-2.5,0.3-3.8
				c6.1-4,13.3-6.3,20.6-6.9c1.8-0.1,3.6-0.1,5.2,0.7c1.3,0.7,2.3,1.8,3.4,2.8c4.6,4,11.9,4.7,17.1,1.5c1.2-0.7,2.5-1.7,3.9-1.5
				c1.2,0.2,2.1,1.2,3.3,1.7C453.4,200,456.3,198.6,459,197.6z"/>
			<path fill="#A97C50" d="M228.5,627.8c12.5-4.5,26,3.4,39.3,3.6c-0.1,1.4,0.1,2.8,0.7,4.1c-12,1.1-24,1.6-36.1,1.4
				c0.3,2.5,0.5,4.9,0.8,7.4c-2.3,0.2-4.6,0-6.8-0.7c0,1.5-0.1,3-0.1,4.5c-2.2,2-5.7,1.9-8.6,1c-2.9-0.9-5.5-2.5-8.5-3
				c-3.4-0.6-6.8,0.2-10.2,0.8s-7,0.8-10.1-0.7c-3.1-1.5-5.1-5.5-3.4-8.5c-6.4-0.2-12.9-1.2-19.1-3c0.1-1.3,0.2-2.5,0.3-3.8
				c6.1-4,13.3-6.3,20.6-6.9c1.8-0.1,3.6-0.1,5.2,0.7c1.3,0.7,2.3,1.8,3.4,2.8c4.6,4,11.9,4.7,17.1,1.5c1.2-0.7,2.5-1.7,3.9-1.5
				c1.2,0.2,2.1,1.2,3.3,1.7C223,630.3,225.9,628.8,228.5,627.8z"/>
			<path fill="#A97C50" d="M662.1,204.6c-7.4-0.3-14.8-0.6-22.2-0.9c-3.1-0.1-6.3-0.3-9.3-1.1c-7.5-2-14.8-8-22.1-5.2
				c-0.7,1.2-0.9,2.6-0.7,3.9c-2.3-0.4-4.8,0.1-6.8,1.3c-0.2,2.4,1,4.9,3,6.2c-3.3,0.7-7,1.8-8.4,4.8c-1.5,3.3,0.8,7.4,4,9.1
				c3.2,1.7,7.1,1.6,10.7,1.5c1.3,0,2.7-0.1,4-0.1c3.8-0.1,7.7-0.2,11.5-0.3c-1.6,3.7,2.4,7.9,6.4,8.2c4,0.3,7.8-1.9,11.2-4
				c3.4-2.1,7.2-4.3,11.2-3.9c2.3,0.2,4.4,1.2,6.6,1.4c2.2,0.2,4.4-0.3,6.6-0.9c4.2-1.1,8.4-2.1,12.5-3.2c1.2-0.3,2.6-1.1,2.3-2.2
				c-13.6-3-27.5-6.1-41.2-3.8c15.8-6.1,36,0.9,49.2-9.7C681.3,205.4,671.7,205,662.1,204.6z"/>
			<path fill="#A97C50" d="M1111.2,614.1c-7.4-0.3-14.8-0.6-22.2-0.9c-3.1-0.1-6.3-0.3-9.3-1.1c-7.5-2-14.8-8-22.1-5.2
				c-0.7,1.2-0.9,2.6-0.7,3.9c-2.3-0.4-4.8,0.1-6.8,1.3c-0.2,2.4,1,4.9,3,6.2c-3.3,0.7-7,1.8-8.4,4.8c-1.5,3.3,0.8,7.4,4,9.1
				c3.2,1.7,7.1,1.6,10.7,1.5c1.3,0,2.7-0.1,4-0.1c3.8-0.1,7.7-0.2,11.5-0.3c-1.6,3.7,2.4,7.9,6.4,8.2s7.8-1.9,11.2-4
				c3.4-2.1,7.2-4.3,11.2-3.9c2.3,0.2,4.4,1.2,6.6,1.4c2.2,0.2,4.4-0.3,6.6-0.9c4.2-1.1,8.4-2.1,12.5-3.2c1.2-0.3,2.6-1.1,2.3-2.2
				c-13.6-3-27.5-6.1-41.2-3.8c15.8-6.1,36,0.9,49.2-9.7C1130.4,614.9,1120.8,614.5,1111.2,614.1z"/>
			<path fill="#A97C50" d="M722.5,322.9c-7.4-0.3-14.8-0.6-22.2-0.9c-3.1-0.1-6.3-0.3-9.3-1.1c-7.5-2-14.8-8-22.1-5.2
				c-0.7,1.2-0.9,2.6-0.7,3.9c-2.3-0.4-4.8,0.1-6.8,1.3c-0.2,2.4,1,4.9,3,6.2c-3.3,0.7-7,1.8-8.4,4.8c-1.5,3.3,0.8,7.4,4,9.1
				c3.2,1.7,7.1,1.6,10.7,1.5c1.3,0,2.7-0.1,4-0.1c3.8-0.1,7.7-0.2,11.5-0.3c-1.6,3.7,2.4,7.9,6.4,8.2c4,0.3,7.8-1.9,11.2-4
				c3.4-2.1,7.2-4.3,11.2-3.9c2.3,0.2,4.4,1.2,6.6,1.4c2.2,0.2,4.4-0.3,6.6-0.9c4.2-1.1,8.4-2.1,12.5-3.2c1.2-0.3,2.6-1.1,2.3-2.2
				c-13.6-3-27.5-6.1-41.2-3.8c15.8-6.1,36,0.9,49.2-9.7C741.7,323.6,732.1,323.2,722.5,322.9z"/>
			<path fill="#A97C50" d="M1332.7,68.1c-7.4-0.3-14.8-0.6-22.2-0.9c-3.1-0.1-6.3-0.3-9.3-1.1c-7.5-2-14.8-8-22.1-5.2
				c-0.7,1.2-0.9,2.6-0.7,3.9c-2.3-0.4-4.8,0.1-6.8,1.3c-0.2,2.4,1,4.9,3,6.2c-3.3,0.7-7,1.8-8.4,4.8c-1.5,3.3,0.8,7.4,4,9.1
				c3.2,1.7,7.1,1.6,10.7,1.5c1.3,0,2.7-0.1,4-0.1c3.8-0.1,7.7-0.2,11.5-0.3c-1.6,3.7,2.4,7.9,6.4,8.2c4,0.3,7.8-1.9,11.2-4
				c3.4-2.1,7.2-4.3,11.2-3.9c2.3,0.2,4.4,1.2,6.6,1.4c2.2,0.2,4.4-0.3,6.6-0.9c4.2-1.1,8.4-2.1,12.5-3.2c1.2-0.3,2.6-1.1,2.3-2.2
				c-13.6-3-27.5-6.1-41.2-3.8c15.8-6.1,36,0.9,49.2-9.7C1351.9,68.8,1342.3,68.4,1332.7,68.1z"/>
			<path fill="#A97C50" d="M136.1,232.3c2.4-0.7,3.6-3.4,5.8-4.5c4.2-2,8.2,2.8,12.5,4.5c1.5,0.6,3.1,0.8,4.7,1.1c3,0.5,6,1.3,9,2
				c7.9,1.9,15.7,3.8,23.6,5.7c5.9,1.4,11.9,2.9,17.6,5.1c-3.7,3.4-9.3,3.5-14.4,3.4c-9.8-0.2-19.5-0.3-29.3-0.5
				c-1.6,0-3.2-0.1-4.5-0.9s-2.1-2.8-1.2-4c1.7-0.3,3-2.1,2.8-3.8c-10.2,3.1-21.3-1.5-32-0.3c-4.4,0.5-8.7,2-13.1,1.9
				s-9.3-2.4-10.3-6.8c-5.5-0.3-11-0.6-16.6-1c-2-0.1-4.2-0.3-5.9-1.5c-3.2-2.3-2.9-7.5-0.1-10.3c2.7-2.8,7-3.5,10.9-3.1
				c7.3,0.7,13.8,4.5,20.5,7.5c5.2,2.3,10.7,4.1,16.3,5.4C133.6,232.4,134.9,232.6,136.1,232.3z"/>
			<path fill="#A97C50" d="M158.3,211.4c6-3.3,11-5.4,17.9-4c0.7,0.1,1.6,2.4,3.1,2.6c3.6,0.4,6.8-2,10.5-1.2c2.2,0.5,2.8,3.9,5,4
				c2.5,0.1,5.6-4.5,7.6-5.5c8.1-4.3,16.2,0.4,15.5,9.9c3.2-0.1,6.4,2.1,9.5,1.5c5.9-1.1,5.4-4.7,12.8-3.3c3.4,0.7,8.5,2,10.6,4.9
				c2.5,3.4,0.7,7.9,3.4,11.2c-10,3.5-21.6-3-31.8-1.9c-8.9,0.9-17.6,3.2-26.2-0.9c2.5-1.2,5.3-2.5,7.4-4.5
				c-2.2-2.6-13.9-5.4-17.3-6.6c-5.2-1.8-8.3-0.6-13.3-0.2C168.6,217.6,156.6,217.1,158.3,211.4z"/>
			<path fill="#A97C50" d="M272.3,256c1.7-0.4,9.6-2.5,13.6-2c3.6,0.4,6.5,2.5,10,2.8c4.9,0.4,14.7-1.9,13.5-8.5
				c-2.1,0.2-4.4-0.8-6.3-1c8.1-10.5,26.2-3.3,35.9-11.8c-2-3.8-24.2-1.5-29.4-0.8c-5.6,0.8-9.8,2-15.6,2c-3.5,0-7.4-0.8-9.9,2
				c5.3,5.8-0.2,9.8-2,4.7c-2.9,2.9-6.1,4.6-9.9,2C269,252.1,266.7,250.4,272.3,256z"/>
			<path fill="#A97C50" d="M380.3,265.4c-4.4,6.2,0.6,14.5,8.1,9.5c3.3,3.7,6.6,1,8.6-1.5c2.7-3.3-2.5-4.2,3.2-5.1
				c0,0,3.8,1.8,4.7,1.9c3,0.3,5.1-0.9,8-0.8c2.2,0.1,4.3,2.4,6.7,2c2.4-0.4,4-3.3,4.1-3.3c9.6-1.8,34.6,6.5,41.8-3.3
				c-7.1-4.5-23.3-1.1-31.9-2.1c-6.6-0.8-12.8-1.3-19.5-1.4c-4.6,0-10.4,0.9-6.6-5.2c-6.1-3.5-9.3,0.2-14.9,1.8
				c-6.3,1.8-11.4-0.5-18.6-0.1c-3.8,0.2-16.3,1.2-9.8,6.9C366.2,266.4,377.6,265.4,380.3,265.4z"/>
			<path fill="#A97C50" d="M246.5,549.5c-4.4,6.2,0.6,14.5,8.1,9.5c3.3,3.7,6.6,1,8.6-1.5c2.7-3.3-2.5-4.2,3.2-5.1
				c0,0,3.8,1.8,4.7,1.9c3,0.3,5.1-0.9,8-0.8c2.2,0.1,4.3,2.4,6.7,2c2.4-0.4,4-3.3,4.1-3.3c9.6-1.8,34.6,6.5,41.8-3.3
				c-7.1-4.5-23.3-1.1-31.9-2.1c-6.6-0.8-12.8-1.3-19.5-1.4c-4.6,0-10.4,0.9-6.6-5.2c-6.1-3.5-9.3,0.2-14.9,1.8
				c-6.3,1.8-11.4-0.5-18.6-0.1c-3.8,0.2-16.3,1.2-9.8,6.9C232.4,550.5,243.8,549.5,246.5,549.5z"/>
			<path fill="#A97C50" d="M-26.3,128c15.3-4.6,27.6-4.5,41.7,2c6.1,2.8,9.3,2.6,15.9,1.2c9.9-2.2,6.3,1,13.2,4.2
				c4.6,2.1,13.2,0.9,18.5,2.1c5.8,1.3,11.1,5.1,16.6,6c5.4,0.9,11.4-2.1,16.9-0.7c3.8,1,7.8,4.3,11.1,6c-2,3.8-6.1,1.2-9.6,0.7
				c-7.6-1-14,0.5-21.6,1.7c-12.6,2-23.5,1-36,0.7c2.9-3.8,8.7-1.4,11.3-5.1c-8.6-5.5-21.3,2.1-30.7-1.6
				c-1.4-12.5-37.8,2.2-44.6,0.7C-24.7,139.1-23.6,134.9-26.3,128z"/>
		</g>
		<g>
			<path fill="#603913" d="M849.4,208c-12.6,6.4-23.4,16.4-29.5,29.1c-3.9,1.3-7.4,3.2-10.5,5.6c-4.7,22.9-7.5,46.1-10.6,69.8
				c-2,24,7,45,11,69c2,12,9,24,13,37c3,11,9,20,17,27c17.8,15.1,32.1,32.2,43.6,50.8c1.9,1.7,3.8,3.4,5.6,5.1
				c7.3,6.6,16.2,12.6,23.7,19.5c-5.3-13.9-12.2-27-21.9-38.5C825.6,406.8,806.6,294,849.4,208z"/>
			<g>
				<path d="M1119.6,300.4c0.8-26.9-13.5-53.6-35.2-69.5c-3.2-10.2-9.9-19.3-18.8-25.3c-8.9-6-20.5-8.7-31.2-7.8
					c-10-11.9-28.1-16.6-42.5-10.8c-11.1-9.8-28.9-11-42.1-4.2c-13.4-7.4-31.5-5.2-42.6,5.3c-15.1-3.5-32,1.9-41.6,14
					c-5.6,1.3-11.1,3.3-16.2,5.9c-42.9,86-23.8,198.8,41.4,274.4c9.8,11.5,16.6,24.5,21.9,38.5c3.7,3.3,7,6.9,9.7,10.8
					c2.4,3.5,4.6,7.2,7.7,10.2c3.1,2.9,7.3,5.1,11.5,4.5c4.9,6,9.5,13,12.1,20.3c-2.5,4.9-4.7,10.6-4.3,16.1
					c-1.9,0.8-3.9,1.6-5.8,2.4c-0.4,8-0.9,15.9-1.3,23.9c6.7,1.5,13.4,3.1,20.1,4.6c5.1-1.6,10.4-5.2,15-7.9
					c-0.2-5.6-0.4-11.3-0.7-16.9c-0.1-1.8-0.2-3.7-1.1-5.2c-1.2-1.8-3.3-2.5-5.3-3.3c-0.4-3.5-0.7-7-1.1-10.4
					c-0.1-1.4-0.3-2.7-0.8-4c-0.5-1.2-2.3-2.8-3.6-3.1c1.8-5.4,4-12.7,9.6-14c1.3-0.3,2.5-0.6,3.8-0.9c2.6-0.6,5.2-1.2,7.6-2.4
					c2.4-1.2,4.6-2.7,5.6-5.1c9.4-21.6,28.8-36.8,45.9-52.9c31.3-29.5,56.9-65,75.1-104c6.2-13.3,11.6-27.2,13.6-41.7
					C1128,327.1,1126.9,313.2,1119.6,300.4z"/>
				<path fill="#A97C50" d="M839.9,445.5c-8-7-14-16-17-27c-4-13-11-25-13-37c-4-24-13-45-11-69c3.1-23.6,5.8-46.9,10.6-69.8
					c-8.9,6.7-14.8,17.1-17.8,28.2c-4.1,15.1-3.1,31-2.1,46.6c2.3,36.6,4.8,73.1,24.9,103.7c18.8,28.5,43.8,52.1,69.1,75
					C872,477.7,857.6,460.6,839.9,445.5z"/>
			</g>
		</g>
	</g>
</g>
</svg>
