<svg id="Capa_1" data-name="Capa 1" xmlns="http://www.w3.org/2000/svg" viewBox="0 0 462.19 511.99"><path d="M367.19,171.13a134.22,134.22,0,0,0-83.5-61.1,136.67,136.67,0,0,0-26.62-3.8l-1.17,30a107.63,107.63,0,0,1,20.67,3,105.09,105.09,0,0,1,70.58,146.15l27.5,12a135.17,135.17,0,0,0-7.46-126.16Z" transform="translate(-0.02 -0.01)"/><path d="M302.75,209.72a60.05,60.05,0,0,0-48.6-28.42l-1.16,30a30.13,30.13,0,0,1,25.28,44.06l27.54,12a61.22,61.22,0,0,0,4.31-12.2,59.73,59.73,0,0,0-7.37-45.4Z" transform="translate(-0.02 -0.01)"/><path d="M430.67,130.63A210.45,210.45,0,0,0,260,31.06l-1.17,30A180.59,180.59,0,0,1,416.25,315.4l27.52,12a211,211,0,0,0-13.1-196.73Z" transform="translate(-0.02 -0.01)"/><path d="M406.77,415.17l-49.14-80.43a46,46,0,0,0-61.53-16.13c-.48.26-27.54,16.62-27.54,16.62-9.44-1.37-39.95-9.85-71.73-61.87-11-18-24.29-45.11-24.89-71.63a61.1,61.1,0,0,1,2.66-20.46l25.82-15.78a45.86,45.86,0,0,0,15.24-63v0L166.48,21.88A46.12,46.12,0,0,0,104.25,6.16h0C43.76,43.14,7.5,97.83,1.1,163.4c-5.84,59.3,12,124.87,51.57,189.6l7.5,12.27C99.73,430,149.94,475.84,205.36,497.73A198.11,198.11,0,0,0,278.57,512c38,0,76.21-11.31,113-33.77a45.94,45.94,0,0,0,15.23-63.06ZM119.35,32.09a16,16,0,0,1,21.53,5.44l49.22,80.54a15.88,15.88,0,0,1-5.27,21.81L164.1,152.53,99,46c6.24-4.79,20.31-13.9,20.31-13.9Zm174.2,449.25c-25.9,2.37-51.86-1.49-77.17-11.49-49.3-19.47-94.47-61-130.61-120.19l-7.49-12.27C42.1,278.24,25.77,219.08,30.94,166.32c2.65-27.08,11.07-51.94,25-73.9a171.92,171.92,0,0,1,20.4-26L144.45,177.9A92.71,92.71,0,0,0,142,199.09c-.21,27.51,9.65,57.77,29.3,89.94s42.08,54.76,66.66,67.13a93.87,93.87,0,0,0,20,7.46L326,475.1A171.75,171.75,0,0,1,293.55,481.34Zm82.34-28.71a225.39,225.39,0,0,1-21.36,11.54L289.47,357.68s21.58-13,22-13.23a15.9,15.9,0,0,1,20.58,5.94l49.14,80.43a15.88,15.88,0,0,1-5.27,21.81Z" transform="translate(-0.02 -0.01)"/></svg>