<svg id="Calque_1" data-name="Calque 1" xmlns="http://www.w3.org/2000/svg" viewBox="0 0 834.5 402.36"><defs><style>.cls-1{fill:#e79e44;}.cls-2{fill:#fff;}.cls-3{font-size:12px;font-family:MyriadPro-Regular, Myriad Pro;}</style></defs><rect class="cls-1" width="147.26" height="143.18"/><path class="cls-2" d="M192.35,279.87h45.37V231.79h-16.3V215.93h16.3V196.12c0-10.92,9.14-19.81,20.38-19.81h20.37v15.85h-16.3a8,8,0,0,0-8.15,7.92v15.85h23.72L275,231.79H254v48.08H290.7c11.24,0,20.38-8.89,20.38-19.82V164.42c0-10.93-9.14-19.81-20.38-19.81H192.35c-11.24,0-20.38,8.88-20.38,19.81v95.63C172,271,181.11,279.87,192.35,279.87ZM180.12,164.42a12.07,12.07,0,0,1,12.23-11.89H290.7a12.08,12.08,0,0,1,12.23,11.89v95.63a12.08,12.08,0,0,1-12.23,11.89H262.17V239.71h19.76l5.43-31.7H262.17v-7.93h24.45v-31.7H258.1c-15.73,0-28.53,12.45-28.53,27.74V208h-16.3v31.7h16.3v32.23H192.35a12.07,12.07,0,0,1-12.23-11.89Z" transform="translate(-167.89 -140.64)"/><text class="cls-3" transform="translate(792.11 399.36)">#E79E44</text></svg>