<svg id="Calque_1" data-name="Calque 1" xmlns="http://www.w3.org/2000/svg" viewBox="0 0 42.55 39"><defs><style>.cls-1{fill:#e79e44;}.cls-2{fill:#fff;}</style></defs><rect class="cls-1" width="42.55" height="39"/><path class="cls-2" d="M218.46,284.26a9.47,9.47,0,1,0-9.55-9.47A9.49,9.49,0,0,0,218.46,284.26Zm0-16.58a7.11,7.11,0,1,1-7.18,7.11A7.12,7.12,0,0,1,218.46,267.68Z" transform="translate(-207.85 -256)"/><path class="cls-2" d="M239.78,284.26a9.47,9.47,0,1,0-9.47-9.47A9.52,9.52,0,0,0,239.78,284.26Zm0-16.58a7.11,7.11,0,1,1-7.1,7.11A7.15,7.15,0,0,1,239.78,267.68Z" transform="translate(-207.85 -256)"/></svg>