<svg id="Capa_1" data-name="Capa 1" xmlns="http://www.w3.org/2000/svg" viewBox="0 0 462.2 512"><defs><style>.cls-1{fill:#fff;}</style></defs><path class="cls-1" d="M392.09,171.13a134.25,134.25,0,0,0-83.5-61.1,136.56,136.56,0,0,0-26.62-3.8l-1.17,30a107,107,0,0,1,20.67,2.95,105.08,105.08,0,0,1,70.58,146.15l27.5,12a135.17,135.17,0,0,0-7.46-126.16Z" transform="translate(-24.9 0)"/><path class="cls-1" d="M327.65,209.72a60.06,60.06,0,0,0-48.6-28.42l-1.16,30a30.13,30.13,0,0,1,25.28,44.06l27.54,12a61.1,61.1,0,0,0,4.31-12.2,59.72,59.72,0,0,0-7.37-45.4Z" transform="translate(-24.9 0)"/><path class="cls-1" d="M455.57,130.63A210.45,210.45,0,0,0,284.89,31.06l-1.17,30A180.6,180.6,0,0,1,441.15,315.4l27.52,12a211.38,211.38,0,0,0,12.72-37.73,209.1,209.1,0,0,0-25.82-159Z" transform="translate(-24.9 0)"/><path class="cls-1" d="M431.67,415.17l-49.14-80.43A46,46,0,0,0,321,318.61c-.48.26-27.54,16.62-27.54,16.62-9.44-1.37-39.95-9.85-71.73-61.87-11-18-24.29-45.11-24.89-71.63a60.9,60.9,0,0,1,2.66-20.46l25.82-15.78a45.86,45.86,0,0,0,15.23-63.06L191.38,21.88A46.12,46.12,0,0,0,129.15,6.16h0C68.66,43.14,32.4,97.83,26,163.4,20.16,222.7,38,288.27,77.57,353l7.5,12.27c39.56,64.77,89.77,110.57,145.19,132.46A198.19,198.19,0,0,0,303.47,512c38,0,76.21-11.31,113-33.77a45.93,45.93,0,0,0,15.23-63.06ZM144.25,32.09a16,16,0,0,1,21.53,5.44L215,118.07a15.88,15.88,0,0,1-5.27,21.81L189,152.53,123.94,46c6.24-4.79,20.31-13.9,20.31-13.9Zm174.2,449.25c-25.9,2.37-51.86-1.49-77.17-11.49-49.3-19.47-94.47-61-130.61-120.19l-7.49-12.27C67,278.24,50.67,219.08,55.84,166.32c2.65-27.08,11.07-51.94,25-73.9a171.21,171.21,0,0,1,20.4-26l68.11,111.48a93,93,0,0,0-2.49,21.19c-.21,27.51,9.65,57.77,29.3,89.94s42.08,54.76,66.66,67.13a93.54,93.54,0,0,0,20,7.46l68.11,111.48A171,171,0,0,1,318.45,481.34Zm82.34-28.71a225,225,0,0,1-21.36,11.54L314.37,357.68s21.58-13,22-13.23a15.9,15.9,0,0,1,20.58,5.94l49.14,80.43a15.88,15.88,0,0,1-5.27,21.81Z" transform="translate(-24.9 0)"/></svg>