<svg id="Calque_1" data-name="Calque 1" xmlns="http://www.w3.org/2000/svg" viewBox="0 0 40 40"><defs><style>.cls-1{fill:#e79e44;}.cls-2{fill:#fff;}</style></defs><rect class="cls-1" width="40" height="40"/><path class="cls-2" d="M303,264l-2.75.13,1.49-4.25s-4.65,1.71-5.83,2a9.33,9.33,0,0,0-11-.89,7.63,7.63,0,0,0-3.66,7.83,20.29,20.29,0,0,1-13.15-7.41l-1.1-1.32-.83,1.51a9,9,0,0,0-.12,8.57l-.94-.37-.11,1.58a8.39,8.39,0,0,0,1.43,5,8.56,8.56,0,0,0,1.11,1.37l-.49-.07.6,1.81a8.78,8.78,0,0,0,4.53,5.25c-2.11.9-3.82,1.47-6.62,2.39l-2.57.84,2.37,1.3a25.14,25.14,0,0,0,7.25,2.64c7,1.1,14.91.2,20.23-4.58,4.47-4,5.94-9.77,5.64-15.74a3.74,3.74,0,0,1,.69-2.43C300.18,267.92,303,264.05,303,264Zm-5.69,3.8a6.05,6.05,0,0,0-1.16,4c.31,6-1.33,10.69-4.87,13.88-4.14,3.72-10.8,5.18-18.3,4a18.61,18.61,0,0,1-3.92-1.17,61.2,61.2,0,0,0,7.1-2.92l4.1-1.93-4.52-.29a6.39,6.39,0,0,1-5.08-2.9,7.63,7.63,0,0,0,1.72-.28l4.31-1.2-4.34-1.07a6.47,6.47,0,0,1-4-2.75,6.39,6.39,0,0,1-.85-1.89,10.26,10.26,0,0,0,1.76.28l4,.4-3.18-2.49a6.71,6.71,0,0,1-2.55-7.07A23.34,23.34,0,0,0,284,271.48a12.4,12.4,0,0,0-.24-2,5.39,5.39,0,0,1,2.37-6.44,7,7,0,0,1,8.26.68,2.11,2.11,0,0,0,1.92.52,14.39,14.39,0,0,0,1.59-.49l-1,2.89h1.29Z" transform="translate(-263 -256)"/></svg>