<svg id="Calque_1" data-name="Calque 1" xmlns="http://www.w3.org/2000/svg" viewBox="0 0 73 63.71"><defs><style>.cls-1{fill:#e79e44;}.cls-2{fill:#fff;}</style></defs><rect class="cls-1" width="73" height="63.71"/><path class="cls-2" d="M232.2,282.13h48.4a10,10,0,0,0,10-10V240a10,10,0,0,0-10-10H232.2a10,10,0,0,0-10,10V272.1A10,10,0,0,0,232.2,282.13Zm-6-42.12a6,6,0,0,1,6-6h48.4a6,6,0,0,1,6,6V272.1a6,6,0,0,1-6,6H232.2a6,6,0,0,1-6-6Z" transform="translate(-219.5 -224.14)"/><path class="cls-2" d="M246.37,242.62v27.26L270.51,256Zm4,6.81,12,6.65-12,6.87Z" transform="translate(-219.5 -224.14)"/></svg>