<svg id="Calque_1" data-name="Calque 1" xmlns="http://www.w3.org/2000/svg" viewBox="0 0 51.21 45.35"><defs><style>.cls-1{fill:#e79e44;}.cls-2{fill:#fff;}</style></defs><rect class="cls-1" width="51.21" height="45.35"/><path class="cls-2" d="M240.83,269.7h30.34a6.29,6.29,0,0,0,6.29-6.29V233.07a6.29,6.29,0,0,0-6.29-6.29H240.83a6.29,6.29,0,0,0-6.29,6.29v30.34A6.29,6.29,0,0,0,240.83,269.7Zm-3.77-36.63a3.77,3.77,0,0,1,3.77-3.77h30.34a3.77,3.77,0,0,1,3.77,3.77v30.34a3.77,3.77,0,0,1-3.77,3.77H240.83a3.77,3.77,0,0,1-3.77-3.77Z" transform="translate(-230.39 -225.57)"/><path class="cls-2" d="M256,259.56a11.32,11.32,0,1,0-11.32-11.32A11.34,11.34,0,0,0,256,259.56Zm0-20.12a8.8,8.8,0,1,1-8.8,8.8A8.81,8.81,0,0,1,256,239.44Z" transform="translate(-230.39 -225.57)"/><path class="cls-2" d="M268.57,239.44a3.78,3.78,0,1,0-3.77-3.77A3.78,3.78,0,0,0,268.57,239.44Zm0-5a1.26,1.26,0,1,1-1.25,1.26A1.25,1.25,0,0,1,268.57,234.41Z" transform="translate(-230.39 -225.57)"/></svg>