<svg id="Calque_1" data-name="Calque 1" xmlns="http://www.w3.org/2000/svg" viewBox="0 0 41.31 41.31"><defs><style>.cls-1{fill:#e79e44;}.cls-1,.cls-2{stroke:#fff;stroke-miterlimit:10;}.cls-2{fill:#fff;}</style></defs><rect class="cls-1" x="0.5" y="0.5" width="40.31" height="40.31"/><path class="cls-2" d="M253.45,328.9l1.19.77.45-1.68c.79-3,.71-2.84.79-3.17a10.26,10.26,0,0,1-.29-5.11v-.07c.8-5.26,9.61-6.69,13.7-3.27,1.76,1.48,2.42,3.7,1.91,6.41a9.39,9.39,0,0,1-2,4.58,3.43,3.43,0,0,1-4.16,1.19,1.72,1.72,0,0,1-.84-2.16,35.07,35.07,0,0,0,1.7-6.8,3.48,3.48,0,0,0-2.76-3.73A4.61,4.61,0,0,0,258,319a7.75,7.75,0,0,0,0,5.63,27,27,0,0,1-.9,3.89c-1.23,4.57-2.92,10.84-1.28,14l.52,1,1-.62c2.71-1.76,4.3-6.9,5.17-10.1,2.29,1.69,5.54,1.84,8.74.27a13.11,13.11,0,0,0,6.87-15.21c-1.92-7.45-9.37-10.34-16.87-9.11-6.19,1-10.12,5-11.16,10C249.13,322.88,250.52,327,253.45,328.9ZM252,319.14c.94-4.41,4.48-7.54,9.49-8.36,6-1,12.85,1,14.56,7.59a11.07,11.07,0,0,1-5.79,12.85c-2.38,1.17-5.62,1.51-7.57-1l-1.27-1.65-.53,2c-.71,2.65-1.85,7.15-3.69,9.56-.36-3,1-7.95,1.83-11.12.82-3,1.14-4.28.87-5.05a5.83,5.83,0,0,1-.05-4.25,2.58,2.58,0,0,1,2.84-1.84,1.41,1.41,0,0,1,1.15,1.6,34.24,34.24,0,0,1-1.62,6.33,3.77,3.77,0,0,0,1.83,4.55,5.46,5.46,0,0,0,6.7-1.65,11.41,11.41,0,0,0,2.46-5.54,9.64,9.64,0,0,0-.23-4.9,7.61,7.61,0,0,0-2.39-3.46c-5.29-4.44-16-2.4-17,4.5a11.93,11.93,0,0,0,.19,5.59c-.09.36-.2.82-.32,1.29A8.31,8.31,0,0,1,252,319.14Z" transform="translate(-244.19 -303.19)"/></svg>